<?xml version="1.0" encoding="UTF-8"?>
<svg xmlns:xlink="http://www.w3.org/1999/xlink" xmlns="http://www.w3.org/2000/svg" xml:space="preserve" style="max-height: 500px; background: transparent;" viewBox="65.53469816272965 141.14183727034123 201.57480314960628 201.57480314960628" y="0px" x="0px" version="1.1" width="201.57480314960628" height="201.57480314960628">
<g id="Background">
	
</g>
<g id="Objects">
	<g>
		<path d="M700.128,174.739c-17.841-17.841-41.561-27.666-66.791-27.666s-48.951,9.825-66.791,27.666&#10;&#9;&#9;&#9;c-17.841,17.84-27.666,41.561-27.666,66.791s9.825,48.951,27.666,66.791c17.84,17.841,41.561,27.666,66.791,27.666&#10;&#9;&#9;&#9;s48.95-9.825,66.791-27.666c17.841-17.84,27.666-41.561,27.666-66.791S717.969,192.58,700.128,174.739z"/>
		<path d="M584.678,239.925c0.043,5.392,0.686,10.614,1.858,15.569c-4.645-1.098-8.218-5.279-8.218-10.106&#10;&#9;&#9;&#9;v-8.875L584.678,239.925z" style="fill:#FFFDF3;"/>
		<path d="M688.356,236.541v8.847c0,4.994-3.537,9.176-8.233,10.166c1.175-4.948,1.823-10.162,1.872-15.546&#10;&#9;&#9;&#9;L688.356,236.541z" style="fill:#FFFDF3;"/>
		<path d="M664.117,211.807c-0.022-0.166-0.031-0.311-0.033-0.334v-6.405c0.189,0.171,0.378,0.343,0.564,0.518&#10;&#9;&#9;&#9;c8.437,7.956,12.899,19.624,12.903,33.742C669.993,231.895,665.172,222.095,664.117,211.807z"/>
		<path d="M659.634,210.476c-4.616,3.26-9.854,5.637-15.373,7.01v-22.172c5.708,1.165,10.881,3.277,15.373,6.282V210.476z"/>
		<path d="M639.811,218.364c-2.228,0.329-4.484,0.505-6.748,0.505c-2.227,0-4.431-0.165-6.602-0.474v-23.739&#10;&#9;&#9;&#9;c2.224-0.271,4.519-0.408,6.876-0.408c2.216,0,4.375,0.124,6.474,0.363V218.364z"/>
		<path d="M622.011,217.543c-5.472-1.338-10.661-3.68-15.373-6.951v-8.724c4.48-3.078,9.653-5.253,15.373-6.471V217.543z"/>
		<path d="M602.208,211.595c-1.136,10.693-5.735,20.356-13.086,27.665c0.019-14.087,4.479-25.73,12.903-33.674&#10;&#9;&#9;&#9;c0.054-0.051,0.109-0.099,0.162-0.149v6.158H602.208z"/>
		<path d="M606.138,215.602c8.078,5.06,17.314,7.717,26.925,7.717c9.592,0,19.07-2.76,27.074-7.823&#10;&#9;&#9;&#9;c1.971,11.364,8.085,21.957,17.166,29.623c-2.351,27.273-21.17,48.593-43.966,48.593c-22.808,0-41.637-21.343-43.97-48.638&#10;&#9;&#9;&#9;C598.241,237.557,604.102,227.232,606.138,215.602z" style="fill:#FFFDF3;"/>
		<path d="M633.287,324.982l-12.311-28.745c3.949,1.254,8.091,1.925,12.361,1.925&#10;&#9;&#9;&#9;c4.229,0,8.332-0.656,12.247-1.887L633.287,324.982z" style="fill:#9970C4;"/>
		<path d="M672.386,297.246c5.698,4.684,10.587,10.44,14.28,16.811c-14.76,10.901-32.425,16.989-51.04,17.451&#10;&#9;&#9;&#9;L672.386,297.246z" style="fill:#2D2D2D;"/>
		<path d="M639.476,321.836l11.945-27.888c8.312-4.035,15.497-10.764,20.809-19.289&#10;&#9;&#9;&#9;c4.495,1.191,8.967,2.599,13.349,4.208L639.476,321.836z" style="fill:#2D2D2D;"/>
		<path d="M615.129,293.887l11.952,27.907l-46.057-42.926c4.404-1.616,8.896-3.03,13.409-4.225&#10;&#9;&#9;&#9;C599.72,283.133,606.864,289.842,615.129,293.887z" style="fill:#2D2D2D;"/>
		<path d="M630.974,331.506c-18.596-0.476-36.24-6.566-50.984-17.461c3.681-6.368,8.553-12.117,14.231-16.793&#10;&#9;&#9;&#9;L630.974,331.506z" style="fill:#2D2D2D;"/>
		<path d="M696.982,305.175c-2.169,2.169-4.431,4.213-6.775,6.13c-3.82-6.451-8.785-12.295-14.541-17.115&#10;&#9;&#9;&#9;l18.141-16.908l-3.281-1.293c-5.224-2.059-10.599-3.843-16.015-5.323c1.716-3.284,3.17-6.787,4.328-10.465&#10;&#9;&#9;&#9;c7.776-0.445,13.967-6.918,13.967-14.813v-16.34l-10.94,5.962c-0.851-13.454-5.704-24.683-14.165-32.662&#10;&#9;&#9;&#9;c-8.706-8.211-20.589-12.551-34.365-12.551s-25.658,4.34-34.365,12.551c-8.448,7.966-13.298,19.173-14.16,32.599l-10.945-5.871&#10;&#9;&#9;&#9;v16.312c0,7.815,6.168,14.234,13.961,14.795c1.157,3.678,2.61,7.181,4.325,10.465c-5.434,1.483-10.83,3.273-16.077,5.34&#10;&#9;&#9;&#9;l-3.282,1.293l18.147,16.914c-5.736,4.813-10.684,10.649-14.493,17.095c-2.337-1.913-4.592-3.951-6.756-6.115&#10;&#9;&#9;&#9;c-17-17-26.362-39.603-26.362-63.644c0-24.042,9.362-46.644,26.362-63.644c17-17,39.603-26.363,63.644-26.363&#10;&#9;&#9;&#9;c24.042,0,46.644,9.362,63.645,26.363c17,17,26.362,39.602,26.362,63.644C723.344,265.572,713.982,288.175,696.982,305.175z" style="fill:#F4CC7A;"/>
		<g>
			<path d="M612.409,252.757c0-0.022-0.003-0.044-0.003-0.066c0.693,0.12,1.359,0.182,1.994,0.182c1.229,0,2.225-0.996,2.225-2.225&#10;&#9;&#9;&#9;&#9;s-0.996-2.225-2.225-2.225c-3.941,0-9.693-3.947-11.577-5.467c-0.955-0.772-2.356-0.624-3.128,0.33&#10;&#9;&#9;&#9;&#9;c-0.773,0.955-0.626,2.356,0.33,3.129c0.08,0.065,2.002,1.614,4.658,3.171c0.069,0.04,0.137,0.078,0.205,0.118&#10;&#9;&#9;&#9;&#9;c-0.767,0.789-1.242,1.865-1.242,3.053c0,2.42,1.962,4.382,4.382,4.382C610.448,257.139,612.409,255.177,612.409,252.757z"/>
			<path d="M652.274,252.873c0.56,0,1.143-0.049,1.748-0.142c0,0.009-0.001,0.017-0.001,0.026c0,2.42,1.962,4.382,4.382,4.382&#10;&#9;&#9;&#9;&#9;c2.42,0,4.382-1.962,4.382-4.382c0-1.143-0.441-2.181-1.158-2.961c0.122-0.07,0.243-0.137,0.365-0.209&#10;&#9;&#9;&#9;&#9;c2.657-1.557,4.578-3.106,4.658-3.171c0.955-0.773,1.103-2.174,0.33-3.129c-0.773-0.956-2.174-1.104-3.129-0.329&#10;&#9;&#9;&#9;&#9;c-1.878,1.52-7.619,5.466-11.576,5.466c-1.229,0-2.225,0.996-2.225,2.225S651.046,252.873,652.274,252.873z"/>
		</g>
		<path d="M620.393,278.336v1.224c0,1.229,0.996,2.225,2.225,2.225c1.229,0,2.225-0.996,2.225-2.225v-1.214h16.587v1.214&#10;&#9;&#9;&#9;c0,1.229,0.996,2.225,2.225,2.225s2.225-0.996,2.225-2.225v-1.214h0.201c1.229,0,2.225-0.996,2.225-2.225&#10;&#9;&#9;&#9;c0-1.229-0.996-2.225-2.225-2.225h-25.487c-1.229,0-2.225,0.996-2.225,2.225C618.369,277.282,619.258,278.234,620.393,278.336z"/>
	</g>
	<g>
		<path d="M356.643,593.643c-12.427-12.427-28.949-19.271-46.523-19.271c-17.574,0-34.096,6.844-46.523,19.271&#10;&#9;&#9;&#9;c-12.427,12.427-19.27,28.949-19.27,46.523c0,17.574,6.844,34.097,19.27,46.523c12.427,12.427,28.949,19.271,46.523,19.271&#10;&#9;&#9;&#9;c17.574,0,34.096-6.844,46.523-19.271c12.427-12.427,19.271-28.949,19.271-46.523C375.914,622.592,369.07,606.07,356.643,593.643z"/>
		<path d="M272.959,690.675c3.239-5.608,7.753-10.46,13.124-14.097l5.112-1.971l6.308,2.432l6.308-2.432&#10;&#9;&#9;&#9;l6.308,2.432l6.309-2.432l6.308,2.432l6.308-2.432l5.007,1.931c5.41,3.646,9.956,8.515,13.216,14.146&#10;&#9;&#9;&#9;c-10.702,7.905-23.596,12.177-37.148,12.177C296.563,702.861,283.664,698.585,272.959,690.675z" style="fill:#282828;"/>
		<path d="M280.14,634.591l-1.729-32.447h63.417l-1.729,32.447c-0.294,5.524-0.401,11.13-0.317,16.662&#10;&#9;&#9;&#9;l0.313,20.636l-4.742,1.829l-6.308-2.432l-6.308,2.432l-6.308-2.432l-6.309,2.432l-6.308-2.432l-6.308,2.432l-6.308-2.432&#10;&#9;&#9;&#9;l-6.308,2.432l-4.742-1.829l0.313-20.636C280.541,645.721,280.434,640.115,280.14,634.591z" style="fill:#9E5523;"/>
		<path d="M354.451,684.498c-1.511,1.511-3.087,2.934-4.719,4.27c-2.932-4.958-6.795-9.35-11.339-12.901&#10;&#9;&#9;&#9;l4.834-1.864l-0.346-22.797c-0.083-5.462,0.023-10.997,0.313-16.45l1.903-35.712h-69.956l1.903,35.712&#10;&#9;&#9;&#9;c0.291,5.453,0.396,10.988,0.313,16.45l-0.346,22.797l4.806,1.853c-4.538,3.549-8.396,7.943-11.323,12.902&#10;&#9;&#9;&#9;c-1.628-1.332-3.199-2.752-4.706-4.26c-11.841-11.842-18.363-27.585-18.363-44.332c0-16.746,6.521-32.49,18.363-44.331&#10;&#9;&#9;&#9;c11.841-11.841,27.585-18.363,44.331-18.363c16.746,0,32.49,6.521,44.332,18.363c11.841,11.841,18.363,27.585,18.363,44.331&#10;&#9;&#9;&#9;C372.814,656.912,366.293,672.657,354.451,684.498z" style="fill:#9CE5D0;"/>
		<g>
			<path d="M292.576,647.456c2.538,0,4.602-2.065,4.602-4.602c0-2.538-2.064-4.602-4.602-4.602c-2.538,0-4.602,2.064-4.602,4.602&#10;&#9;&#9;&#9;&#9;C287.974,645.391,290.038,647.456,292.576,647.456z M292.576,641.351c0.828,0,1.502,0.674,1.502,1.502s-0.674,1.502-1.502,1.502&#10;&#9;&#9;&#9;&#9;c-0.828,0-1.502-0.674-1.502-1.502S291.747,641.351,292.576,641.351z"/>
			<path d="M327.664,647.456c2.537,0,4.602-2.065,4.602-4.602c0-2.538-2.065-4.602-4.602-4.602c-2.538,0-4.602,2.064-4.602,4.602&#10;&#9;&#9;&#9;&#9;C323.062,645.391,325.127,647.456,327.664,647.456z M327.664,641.351c0.828,0,1.502,0.674,1.502,1.502s-0.674,1.502-1.502,1.502&#10;&#9;&#9;&#9;&#9;c-0.828,0-1.502-0.674-1.502-1.502S326.836,641.351,327.664,641.351z"/>
		</g>
	</g>
	<g>
		<path d="M233.805,174.577c-17.884-17.884-41.662-27.733-66.953-27.733s-49.069,9.849-66.953,27.733&#10;&#9;&#9;&#9;c-17.884,17.884-27.733,41.661-27.733,66.953s9.849,49.069,27.733,66.953c17.884,17.883,41.661,27.733,66.953,27.733&#10;&#9;&#9;&#9;s49.069-9.849,66.953-27.733c17.884-17.884,27.733-41.662,27.733-66.953S251.688,192.461,233.805,174.577z"/>
		<path d="M113.375,314.22c6.316-10.932,15.936-19.77,27.355-25.107c7.556,5.813,16.518,9.185,26.12,9.185&#10;&#9;&#9;&#9;c9.589,0,18.54-3.363,26.09-9.161c11.422,5.346,21.047,14.178,27.369,25.096c-15.401,11.374-33.957,17.522-53.458,17.522&#10;&#9;&#9;&#9;C147.342,331.755,128.78,325.603,113.375,314.22z" style="fill:#282828;"/>
		<path d="M118.115,241.804c0.166,4.857,0.819,9.565,1.904,14.052c-1.332-0.131-2.607-0.62-3.698-1.451&#10;&#9;&#9;&#9;c-1.55-1.181-2.547-2.895-2.808-4.826C113.053,246.171,115.04,242.993,118.115,241.804z" style="fill:#F9E3CF;"/>
		<path d="M218.765,244.18c1.181,1.55,1.688,3.467,1.427,5.398c-0.46,3.41-3.223,5.947-6.506,6.276&#10;&#9;&#9;&#9;c1.085-4.488,1.739-9.195,1.904-14.052C216.837,242.282,217.934,243.09,218.765,244.18z" style="fill:#F9E3CF;"/>
		<path d="M180.785,250.859c-0.672,0-1.286-0.508-1.461-1.204l-2.12-8.529h13.087l-5.029,9.733H180.785z"/>
		<polygon points="195.313,241.126 197.674,241.126 192.645,250.859 190.284,250.859"/>
		<path d="M202.54,241.427v7.465c0,0.954-0.595,1.967-1.697,1.967h-3.176L202.54,241.427z"/>
		<path d="M122.591,236.665c0.151-3.696,0.61-7.229,1.384-10.544h85.754&#10;&#9;&#9;&#9;c0.774,3.314,1.233,6.848,1.384,10.544H122.591z" style="fill:#F9E3CF;"/>
		<path d="M131.166,241.126h10.964l-5.029,9.733h-4.24c-1.102,0-1.696-1.014-1.696-1.967V241.126z"/>
		<polygon points="147.151,241.126 149.513,241.126 144.484,250.859 142.123,250.859"/>
		<path d="M154.534,241.126h1.966l-2.119,8.526c-0.175,0.699-0.789,1.207-1.461,1.207h-3.415L154.534,241.126z"/>
		<polygon points="126.79,213.55 206.915,213.55 208.209,221.661 125.496,221.661" style="fill:#282828;"/>
		<polygon points="127.501,209.089 130.542,190.029 203.163,190.029 206.203,209.089" style="fill:#282828;"/>
		<path d="M126.705,241.126v7.765c0,3.605,2.705,6.428,6.157,6.428h20.058c2.734,0,5.114-1.886,5.79-4.589&#10;&#9;&#9;&#9;l2.387-9.605h11.511l2.388,9.608c0.675,2.7,3.055,4.586,5.789,4.586h20.058c3.453,0,6.158-2.824,6.158-6.428v-7.765h4.148&#10;&#9;&#9;&#9;c-0.612,23.272-13.147,42.902-30.325,49.935c0.786-1.113,1.449-2.328,1.962-3.63c2.092-5.311,1.392-11.254-1.871-15.898&#10;&#9;&#9;&#9;c-3.978-5.66-8.972-8.776-14.062-8.776c-5.09,0-10.084,3.117-14.062,8.776c-3.264,4.643-3.964,10.587-1.871,15.898&#10;&#9;&#9;&#9;c0.513,1.303,1.176,2.517,1.963,3.631c-17.178-7.032-29.714-26.663-30.326-49.936H126.705z" style="fill:#F9E3CF;"/>
		<path d="M178.635,285.797c-1.569,3.985-5.002,6.89-9.182,7.77c-0.123,0.026-0.247,0.046-0.371,0.068V283.2&#10;&#9;&#9;&#9;c0-1.232-0.999-2.23-2.23-2.23c-1.232,0-2.23,0.999-2.23,2.23v10.435c-0.124-0.022-0.247-0.042-0.37-0.068h0&#10;&#9;&#9;&#9;c-4.18-0.881-7.612-3.786-9.182-7.77c-1.564-3.97-1.064-8.234,1.37-11.697c3.119-4.438,6.817-6.881,10.413-6.881&#10;&#9;&#9;&#9;c3.595,0,7.293,2.444,10.413,6.881C179.7,277.563,180.199,281.827,178.635,285.797z" style="fill:#634028;"/>
		<path d="M230.65,305.329c-2.173,2.173-4.439,4.22-6.787,6.141c-6.435-10.878-15.948-19.78-27.212-25.483&#10;&#9;&#9;&#9;c7.039-6.583,12.553-15.437,15.784-25.646c0.179,0.008,0.357,0.018,0.535,0.018c5.789,0,10.847-4.291,11.643-10.184&#10;&#9;&#9;&#9;c0.42-3.112-0.397-6.201-2.3-8.699c-1.683-2.208-4.038-3.719-6.712-4.33c-0.12-3.845-0.563-7.533-1.309-11.025h19.474&#10;&#9;&#9;&#9;c1.232,0,2.23-0.999,2.23-2.23c0-1.232-0.999-2.23-2.23-2.23h-21.04l-5.457-34.213c-0.173-1.083-1.106-1.879-2.203-1.879h-76.427&#10;&#9;&#9;&#9;c-1.096,0-2.03,0.796-2.203,1.879l-5.457,34.213H99.94c-1.232,0-2.23,0.999-2.23,2.23c0,1.232,0.999,2.23,2.23,2.23h19.473&#10;&#9;&#9;&#9;c-0.746,3.492-1.189,7.18-1.309,11.025c-2.674,0.611-5.029,2.122-6.712,4.33c-1.903,2.498-2.72,5.587-2.3,8.699&#10;&#9;&#9;&#9;c0.42,3.112,2.027,5.874,4.525,7.777c2.069,1.577,4.544,2.408,7.101,2.408c0.183,0,0.367-0.01,0.551-0.019&#10;&#9;&#9;&#9;c3.226,10.195,8.729,19.038,15.754,25.619c-11.262,5.697-20.772,14.603-27.203,25.495c-2.341-1.917-4.601-3.959-6.769-6.127&#10;&#9;&#9;&#9;c-17.041-17.042-26.426-39.699-26.426-63.799s9.385-46.757,26.426-63.799c17.041-17.041,39.699-26.426,63.799-26.426&#10;&#9;&#9;&#9;c24.1,0,46.758,9.385,63.799,26.426c17.041,17.041,26.426,39.699,26.426,63.799S247.692,288.288,230.65,305.329z" style="fill:#45E599;"/>
		<path d="M166.853,273.185c-3.471,0-6.68,0.955-8.583,2.555c-0.943,0.793-1.064,2.2-0.271,3.143c0.793,0.943,2.2,1.064,3.143,0.271&#10;&#9;&#9;&#9;c0.827-0.696,2.82-1.509,5.711-1.509c2.889,0,4.88,0.813,5.708,1.509c0.418,0.352,0.928,0.523,1.434,0.523&#10;&#9;&#9;&#9;c0.636,0,1.267-0.27,1.708-0.795c0.793-0.943,0.671-2.35-0.271-3.143C173.529,274.14,170.322,273.185,166.853,273.185z"/>
	</g>
	<g>
		<path d="M708.737,419.786c-12.427-12.427-28.949-19.271-46.523-19.271c-17.574,0-34.096,6.844-46.523,19.271&#10;&#9;&#9;&#9;c-12.427,12.427-19.271,28.949-19.271,46.523c0,17.574,6.844,34.097,19.271,46.523c12.427,12.427,28.949,19.27,46.523,19.27&#10;&#9;&#9;&#9;c17.574,0,34.097-6.844,46.523-19.27c12.427-12.427,19.271-28.949,19.271-46.523C728.007,448.735,721.163,432.213,708.737,419.786&#10;&#9;&#9;&#9;z"/>
		<path d="M628.349,466.539c0.117,3.357,0.57,6.611,1.319,9.714c-0.887-0.106-1.735-0.441-2.464-0.997&#10;&#9;&#9;&#9;c-1.077-0.821-1.77-2.012-1.951-3.354c-0.181-1.342,0.171-2.674,0.992-3.751C626.798,467.423,627.524,466.876,628.349,466.539z" style="fill:#634028;"/>
		<path d="M698.388,468.151c0.821,1.077,1.173,2.409,0.992,3.751c-0.181,1.342-0.874,2.533-1.951,3.354&#10;&#9;&#9;&#9;c-0.787,0.6-1.712,0.946-2.675,1.02c0.759-3.135,1.215-6.424,1.328-9.818C696.99,466.785,697.788,467.364,698.388,468.151z" style="fill:#634028;"/>
		<path d="M688.388,484.721c-0.48-0.224-0.76-0.599-0.918-0.936c-0.462-0.986-0.373-2.647,0.868-4.136&#10;&#9;&#9;&#9;c2.819-3.383,3.517-8.642,3.542-12.895l1.108-0.575C692.788,472.963,691.13,479.297,688.388,484.721z"/>
		<path d="M686.397,466.108c-1.087-4.548-5.183-7.941-10.059-7.941c-5.338,0-9.744,4.065-10.287,9.261h-7.675&#10;&#9;&#9;&#9;c-0.543-5.197-4.949-9.261-10.287-9.261c-4.876,0-8.972,3.393-10.059,7.941l-2.345-1.217c0.111-2.596,0.427-4.491,0.435-4.541&#10;&#9;&#9;&#9;c0.019-0.112,1.995-11.221,11.384-13.404c2.432-0.567,4.689,0.09,6.898,2.004c4.526,3.922,11.095,3.922,15.621,0&#10;&#9;&#9;&#9;c2.21-1.914,4.467-2.57,6.898-2.004c9.348,2.174,11.365,13.295,11.385,13.411c0.178,1.027,0.367,2.651,0.439,4.532&#10;&#9;&#9;&#9;L686.397,466.108z" style="fill:#634028;"/>
		<path d="M669.094,468.511c0-3.994,3.25-7.244,7.244-7.244c0.51,0,1.008,0.054,1.488,0.154l-6.182,12.601&#10;&#9;&#9;&#9;C670.085,472.692,669.094,470.716,669.094,468.511z"/>
		<path d="M680.653,462.697c1.776,1.322,2.929,3.436,2.929,5.814c0,3.994-3.25,7.244-7.244,7.244c-0.678,0-1.335-0.096-1.958-0.271&#10;&#9;&#9;&#9;L680.653,462.697z"/>
		<path d="M640.845,468.511c0-3.994,3.25-7.244,7.244-7.244c0.483,0,0.954,0.048,1.411,0.139l-6.165,12.564&#10;&#9;&#9;&#9;C641.811,472.641,640.845,470.687,640.845,468.511z"/>
		<path d="M652.341,462.652c1.811,1.318,2.992,3.453,2.992,5.859c0,3.994-3.25,7.244-7.244,7.244c-0.706,0-1.388-0.103-2.034-0.293&#10;&#9;&#9;&#9;L652.341,462.652z"/>
		<path d="M691.762,463.323c-0.144-1.972-0.37-3.321-0.399-3.488c-0.091-0.54-2.36-13.262-13.739-15.908&#10;&#9;&#9;&#9;c-3.419-0.794-6.66,0.107-9.63,2.681c-3.35,2.902-8.212,2.902-11.562,0c-2.971-2.574-6.211-3.476-9.63-2.681&#10;&#9;&#9;&#9;c-11.379,2.646-13.648,15.368-13.738,15.902c-0.029,0.169-0.256,1.521-0.4,3.495l-1.2-0.623c0.412-8.903,3.48-16.281,8.938-21.428&#10;&#9;&#9;&#9;c5.479-5.167,13.02-7.898,21.81-7.898c8.79,0,16.331,2.731,21.81,7.898c5.458,5.147,8.526,12.525,8.938,21.428L691.762,463.323z"/>
		<path d="M632.547,466.754c0.024,4.254,0.723,9.512,3.541,12.895c1.135,1.361,1.599,2.991,1.156,4.055&#10;&#9;&#9;&#9;c-0.207,0.496-0.61,0.842-1.194,1.042c-2.75-5.43-4.413-11.773-4.613-18.567L632.547,466.754z"/>
		<path d="M638.469,477.665c-1.93-2.315-2.616-5.942-2.78-9.279l2.103,1.091&#10;&#9;&#9;&#9;c0.489,5.252,4.919,9.378,10.297,9.378c5.013,0,9.203-3.585,10.145-8.326h7.96c0.941,4.741,5.132,8.326,10.145,8.326&#10;&#9;&#9;&#9;c5.378,0,9.808-4.126,10.297-9.378l2.088-1.084c-0.186,3.437-0.908,7.042-2.766,9.272c-1.857,2.229-2.365,5.147-1.293,7.435&#10;&#9;&#9;&#9;c0.486,1.037,1.26,1.837,2.219,2.335c-5.622,9.234-14.588,15.221-24.67,15.221c-10.069,0-19.024-5.971-24.647-15.185&#10;&#9;&#9;&#9;c1.169-0.532,2.057-1.415,2.54-2.575C641.008,482.729,640.381,479.959,638.469,477.665z" style="fill:#634028;"/>
		<path d="M652.336,512.784c-0.304-0.548-0.908-0.86-1.532-0.788l-6.161,0.705l0.643-12.429&#10;&#9;&#9;&#9;c2.179,1.524,4.51,2.763,6.96,3.676l8.418,18.896v5.033l-13.491-7.076l5.019-6.3C652.583,514.01,652.64,513.333,652.336,512.784z" style="fill:#2D2D2D;"/>
		<path d="M679.141,500.272l0.643,12.429l-6.161-0.705c-0.624-0.073-1.228,0.24-1.532,0.788&#10;&#9;&#9;&#9;c-0.304,0.549-0.247,1.227,0.143,1.717l5.019,6.3l-13.491,7.076v-5.038l8.418-18.892&#10;&#9;&#9;&#9;C674.631,503.035,676.962,501.796,679.141,500.272z" style="fill:#2D2D2D;"/>
		<path d="M662.212,518.704l-6.061-13.605c1.967,0.431,3.993,0.657,6.062,0.657&#10;&#9;&#9;&#9;c2.069,0,4.094-0.226,6.062-0.657L662.212,518.704z" style="fill:#FFFFFF;"/>
		<path d="M680.354,522.675c0.409-0.215,0.702-0.601,0.797-1.053c0.095-0.452-0.016-0.924-0.304-1.285&#10;&#9;&#9;&#9;l-3.852-4.835l4.255,0.487c0.452,0.053,0.905-0.098,1.237-0.41c0.332-0.312,0.51-0.755,0.487-1.21l-0.725-14.028&#10;&#9;&#9;&#9;c7.099,3.765,13.081,9.52,17.115,16.484c-8.904,6.577-19.326,10.636-30.381,11.815L680.354,522.675z" style="fill:#2D2D2D;"/>
		<path d="M641.939,515.578c0.332,0.312,0.786,0.463,1.237,0.41l4.255-0.487l-3.852,4.835&#10;&#9;&#9;&#9;c-0.288,0.361-0.4,0.833-0.304,1.285c0.095,0.452,0.387,0.839,0.797,1.053l11.373,5.965c-11.057-1.179-21.481-5.239-30.386-11.818&#10;&#9;&#9;&#9;c4.034-6.981,10.019-12.745,17.121-16.505l-0.726,14.052C641.429,514.824,641.607,515.266,641.939,515.578z" style="fill:#2D2D2D;"/>
		<path d="M706.545,510.641c-1.509,1.509-3.082,2.93-4.712,4.264c-4.472-7.557-11.096-13.756-18.911-17.706&#10;&#9;&#9;&#9;c4.891-4.575,8.722-10.728,10.966-17.822c0.162,0.009,0.323,0.016,0.485,0.016c1.777,0,3.497-0.578,4.934-1.673&#10;&#9;&#9;&#9;c1.736-1.323,2.852-3.242,3.144-5.404c0.292-2.162-0.275-4.309-1.598-6.045c-1.192-1.564-2.868-2.623-4.77-3.031&#10;&#9;&#9;&#9;c-0.318-10.025-3.735-18.377-9.934-24.224c-6.064-5.719-14.342-8.742-23.937-8.742c-9.595,0-17.872,3.023-23.937,8.742&#10;&#9;&#9;&#9;c-6.209,5.855-9.626,14.224-9.936,24.269c-1.816,0.439-3.414,1.479-4.563,2.985c-1.323,1.736-1.89,3.882-1.598,6.045&#10;&#9;&#9;&#9;c0.292,2.162,1.409,4.082,3.144,5.404c1.438,1.095,3.157,1.673,4.934,1.673c0.093,0,0.187-0.006,0.281-0.01&#10;&#9;&#9;&#9;c2.242,7.083,6.066,13.228,10.948,17.8c-7.819,3.953-14.433,10.153-18.9,17.717c-1.628-1.333-3.2-2.753-4.707-4.26&#10;&#9;&#9;&#9;c-11.841-11.842-18.363-27.586-18.363-44.332s6.521-32.49,18.363-44.331c11.841-11.841,27.585-18.363,44.331-18.363&#10;&#9;&#9;&#9;c16.746,0,32.49,6.521,44.332,18.363c11.841,11.841,18.363,27.585,18.363,44.331S718.386,498.799,706.545,510.641z" style="fill:#5A9E89;"/>
		<g>
			<path d="M657.849,487.945c0.641-0.27,2.169-0.585,4.365-0.585c2.194,0,3.722,0.315,4.363,0.585c0.196,0.082,0.4,0.121,0.6,0.121&#10;&#9;&#9;&#9;&#9;c0.605,0,1.18-0.357,1.429-0.949c0.332-0.789-0.039-1.698-0.828-2.03c-1.25-0.526-3.278-0.827-5.565-0.827&#10;&#9;&#9;&#9;&#9;c-2.288,0-4.317,0.301-5.567,0.827c-0.789,0.332-1.16,1.241-0.828,2.03C656.152,487.906,657.06,488.276,657.849,487.945z"/>
			<path d="M663.763,489.126h-3.1c-0.856,0-1.55,0.694-1.55,1.55c0,0.856,0.694,1.55,1.55,1.55h3.1c0.856,0,1.55-0.694,1.55-1.55&#10;&#9;&#9;&#9;&#9;C665.313,489.82,664.619,489.126,663.763,489.126z"/>
		</g>
	</g>
	<g>
		<path d="M535.652,593.659c-12.392-12.461-28.895-19.351-46.469-19.4c-0.063,0-0.125,0-0.189,0&#10;&#9;&#9;&#9;c-17.503,0-33.972,6.794-46.388,19.141c-12.461,12.393-19.351,28.896-19.4,46.469c-0.049,17.574,6.749,34.115,19.141,46.577&#10;&#9;&#9;&#9;c12.392,12.461,28.895,19.351,46.469,19.4c0.063,0,0.125,0,0.188,0c17.503,0,33.972-6.794,46.389-19.142&#10;&#9;&#9;&#9;c12.461-12.392,19.351-28.895,19.4-46.469C554.842,622.662,548.045,606.121,535.652,593.659z"/>
		<path d="M489.004,702.747c-0.059,0-0.12,0-0.179,0c-13.497-0.038-26.329-4.312-36.984-12.185&#10;&#9;&#9;&#9;c2.571-4.449,5.976-8.458,9.948-11.725c6.129,8.396,16.042,13.863,27.21,13.863c11.158,0,21.064-5.457,27.194-13.841&#10;&#9;&#9;&#9;c3.974,3.267,7.38,7.272,9.952,11.714C515.443,698.478,502.549,702.747,489.004,702.747z" style="fill:#B55757;"/>
		<path d="M522.672,640.137c0.99,0.311,1.861,0.915,2.503,1.757c0.821,1.077,1.173,2.409,0.992,3.751&#10;&#9;&#9;&#9;c-0.181,1.342-0.874,2.533-1.951,3.354c-0.472,0.36-0.994,0.623-1.543,0.798V640.137z" style="fill:#F9E3CF;"/>
		<path d="M498.702,627.521c0.827,1.055,1.969,0.616,3.548-0.014c6.043-2.415,12.761-3.908,16.912,2.918&#10;&#9;&#9;&#9;c0.118,1.092,0.21,2.205,0.277,3.366l-6.486,11.45c-2.495,4.404-7.666,6.62-12.576,5.392c-7.443-1.864-15.311-1.864-22.754,0&#10;&#9;&#9;&#9;c-4.909,1.229-10.081-0.988-12.576-5.392l-5.999-10.591c1.763-5.272,6.79-11.086,16.398-13.413&#10;&#9;&#9;&#9;C484.811,618.968,493.939,621.441,498.702,627.521z" style="fill:#F9E3CF;"/>
		<path d="M503.847,623.569c0.375-0.678,0.746-1.422,1.083-2.226c1.719-4.104,1.871-8.057,0.476-11.576&#10;&#9;&#9;&#9;c1.614,0.11,3.945,0.642,6.24,2.484c3.086,2.476,5.306,6.694,6.598,12.447C513.525,621.149,507.735,622.275,503.847,623.569z" style="fill:#FFFFFF;"/>
		<path d="M501.678,609.226c1.401,2.272,1.866,4.797,1.397,7.536c-2.186-3.488-6.912-8.761-16.026-10.216&#10;&#9;&#9;&#9;c-0.848-0.139-1.64,0.441-1.775,1.286c-0.135,0.845,0.44,1.64,1.286,1.775c11.475,1.833,14.882,10.518,15.167,11.301&#10;&#9;&#9;&#9;c-0.257,0.544-0.527,1.052-0.796,1.518c-0.869-1.479-2.24-3.392-4.284-5.218c-3.743-3.343-10.55-7.035-21.729-5.639&#10;&#9;&#9;&#9;c-0.849,0.106-1.452,0.881-1.346,1.73c0.106,0.849,0.881,1.451,1.73,1.346c7.976-0.998,14.425,0.609,19.164,4.773&#10;&#9;&#9;&#9;c0.635,0.558,1.195,1.127,1.688,1.687c-5.735-3.656-13.541-4.803-21.441-2.89c-8.255,2-14.645,6.821-17.66,13.066&#10;&#9;&#9;&#9;c-0.598-7.771,0.123-18.91,7.689-25.187c5.668-4.703,11.428-7.076,17.157-7.076c0.766,0,1.533,0.042,2.298,0.128&#10;&#9;&#9;&#9;C494.258,600.265,501.063,608.46,501.678,609.226z" style="fill:#FFFFFF;"/>
		<path d="M455.133,640.283c0.033,0.992,0.098,1.975,0.195,3.003v6.445c-0.474-0.173-0.925-0.417-1.338-0.732&#10;&#9;&#9;&#9;c-1.077-0.821-1.77-2.012-1.951-3.354c-0.181-1.342,0.171-2.674,0.992-3.751C453.585,641.167,454.309,640.621,455.133,640.283z" style="fill:#F9E3CF;"/>
		<path d="M458.428,639.845l3.922,6.924c3.179,5.612,9.77,8.437,16.026,6.871&#10;&#9;&#9;&#9;c6.951-1.74,14.298-1.74,21.248,0c6.256,1.567,12.847-1.258,16.026-6.871l3.922-6.924v19.183&#10;&#9;&#9;&#9;c0,16.858-13.714,30.572-30.572,30.572c-16.858,0-30.572-13.714-30.572-30.572V639.845z" style="fill:#FFFFFF;"/>
		<path d="M533.208,684.508c-1.474,1.465-3.007,2.848-4.595,4.147c-2.786-4.706-6.442-8.945-10.697-12.394&#10;&#9;&#9;&#9;c3.018-5.045,4.755-10.94,4.755-17.233v-6.038c1.229-0.233,2.398-0.745,3.422-1.526c1.736-1.323,2.852-3.242,3.144-5.404&#10;&#9;&#9;&#9;c0.292-2.162-0.276-4.309-1.598-6.045c-1.236-1.622-2.994-2.704-4.985-3.076c-0.236-13.421-3.283-22.393-9.069-27.037&#10;&#9;&#9;&#9;c-3.997-3.207-8.137-3.368-9.98-3.207c-1.998-2.317-8.93-9.489-19.032-10.626c-7.362-0.828-14.698,1.742-21.807,7.639&#10;&#9;&#9;&#9;c-5.796,4.809-8.902,12.766-8.982,23.013c-0.033,4.166,0.431,7.886,0.866,10.441c-1.618,0.497-3.039,1.48-4.085,2.853&#10;&#9;&#9;&#9;c-1.323,1.736-1.89,3.882-1.598,6.045c0.292,2.162,1.409,4.082,3.144,5.404c0.967,0.737,2.063,1.233,3.217,1.483v6.08&#10;&#9;&#9;&#9;c0,6.284,1.732,12.17,4.741,17.21c-4.254,3.448-7.91,7.692-10.694,12.405c-1.672-1.369-3.285-2.829-4.83-4.382&#10;&#9;&#9;&#9;c-11.808-11.874-18.286-27.636-18.239-44.382c0.047-16.746,6.612-32.472,18.486-44.28c11.832-11.767,27.523-18.24,44.203-18.24&#10;&#9;&#9;&#9;c0.059,0,0.12,0,0.179,0c16.746,0.047,32.472,6.612,44.28,18.486c11.808,11.874,18.286,27.636,18.239,44.382&#10;&#9;&#9;&#9;C551.647,656.974,545.082,672.699,533.208,684.508z" style="fill:#F4CC7A;"/>
		<g>
			<circle r="3.052" cy="643.964" cx="471.456"/>
			<path d="M506.544,647.017c1.686,0,3.052-1.366,3.052-3.052c0-1.686-1.366-3.052-3.052-3.052c-1.686,0-3.052,1.366-3.052,3.052&#10;&#9;&#9;&#9;&#9;C503.492,645.65,504.859,647.017,506.544,647.017z"/>
		</g>
		<path d="M485.278,663.021c0.575-0.484,1.959-1.048,3.968-1.048c2.007,0,3.391,0.565,3.966,1.049&#10;&#9;&#9;&#9;c0.291,0.244,0.645,0.364,0.997,0.364c0.442,0,0.881-0.188,1.187-0.552c0.551-0.655,0.466-1.633-0.189-2.184&#10;&#9;&#9;&#9;c-1.322-1.112-3.551-1.776-5.961-1.776c-2.412,0-4.642,0.664-5.964,1.776c-0.655,0.551-0.74,1.529-0.189,2.184&#10;&#9;&#9;&#9;C483.645,663.488,484.622,663.572,485.278,663.021z"/>
		<path d="M490.692,664.288h-2.536c-0.856,0-1.55,0.694-1.55,1.55c0,0.856,0.694,1.55,1.55,1.55h2.536c0.856,0,1.55-0.694,1.55-1.55&#10;&#9;&#9;&#9;C492.241,664.982,491.547,664.288,490.692,664.288z"/>
	</g>
	<g>
		<path d="M184.483,593.681c-12.427-12.427-28.949-19.271-46.523-19.271c-17.574,0-34.096,6.844-46.523,19.271&#10;&#9;&#9;&#9;c-12.427,12.427-19.271,28.949-19.271,46.523c0,17.574,6.844,34.097,19.271,46.523c12.427,12.426,28.949,19.27,46.523,19.27&#10;&#9;&#9;&#9;c17.574,0,34.097-6.844,46.523-19.27c12.427-12.427,19.271-28.949,19.271-46.523C203.753,622.63,196.91,606.108,184.483,593.681z"/>
		<path d="M100.801,690.714c3.36-5.816,8.066-10.779,13.649-14.45c6.34,7.392,14.639,11.448,23.509,11.448&#10;&#9;&#9;&#9;c8.861,0,17.154-4.047,23.493-11.426c5.584,3.672,10.291,8.63,13.653,14.437c-10.702,7.904-23.595,12.175-37.146,12.175&#10;&#9;&#9;&#9;C124.403,702.898,111.505,698.623,100.801,690.714z" style="fill:#F4CC7A;"/>
		<path d="M135.603,629.719l1.176,3.396l-26.907-8.835c1.496-3.519,3.599-6.586,6.279-9.113&#10;&#9;&#9;&#9;c5.479-5.167,13.02-7.898,21.81-7.898s16.332,2.731,21.81,7.898c5.88,5.545,8.988,13.677,8.988,23.518&#10;&#9;&#9;&#9;c0,0.655-0.014,1.306-0.041,1.952L137.66,627.78c-0.564-0.233-1.212-0.114-1.656,0.304&#10;&#9;&#9;&#9;C135.56,628.502,135.403,629.142,135.603,629.719z" style="fill:#6D6D6D;"/>
		<path d="M108.803,627.192l1.986,0.652l-3.08,3.981C107.977,630.217,108.343,628.671,108.803,627.192z" style="fill:#6D6D6D;"/>
		<path d="M171.857,638.685c0-1.561-0.075-3.082-0.22-4.563c4.883,1.755,8.061,6.742,7.339,12.087&#10;&#9;&#9;&#9;c-0.402,2.977-1.939,5.619-4.329,7.44c-1.748,1.332-3.799,2.105-5.94,2.268C170.727,650.676,171.857,644.838,171.857,638.685z" style="fill:#9970C4;"/>
		<path d="M171.171,630.753c-1.302-7.206-4.443-13.285-9.274-17.841c-6.065-5.719-14.342-8.742-23.937-8.742&#10;&#9;&#9;&#9;c-9.595,0-17.872,3.023-23.937,8.742c-4.831,4.556-7.972,10.633-9.274,17.838c-2.048,0.487-3.903,1.407-5.485,2.644&#10;&#9;&#9;&#9;c2.007-19.551,18.584-34.882,38.671-34.882c20.076,0,36.645,15.314,38.668,34.85C175.033,632.143,173.196,631.236,171.171,630.753&#10;&#9;&#9;&#9;z" style="fill:#9970C4;"/>
		<path d="M104.282,634.118c-0.145,1.482-0.221,3.005-0.221,4.567c0,6.153,1.13,11.991,3.15,17.233&#10;&#9;&#9;&#9;c-2.145-0.161-4.2-0.934-5.951-2.269c-2.389-1.821-3.926-4.463-4.328-7.44C96.209,640.861,99.393,635.87,104.282,634.118z" style="fill:#9970C4;"/>
		<path d="M107.161,638.685c0-0.371,0.006-0.739,0.015-1.106l6.739-8.709l24.867,8.165&#10;&#9;&#9;&#9;c0.56,0.183,1.175,0.035,1.588-0.385c0.413-0.42,0.553-1.038,0.36-1.594l-1.071-3.094l28.806,11.926&#10;&#9;&#9;&#9;c-2.069,18.426-14.96,32.662-30.506,32.662C120.977,676.551,107.161,659.565,107.161,638.685z" style="fill:#F9E3CF;"/>
		<path d="M137.959,679.651c6.663,0,12.883-2.337,18.129-6.366c0.909,0.425,1.8,0.884,2.675,1.371&#10;&#9;&#9;&#9;c-5.696,6.435-13.022,9.956-20.804,9.956c-7.791,0-15.122-3.528-20.819-9.976c0.873-0.486,1.762-0.943,2.669-1.367&#10;&#9;&#9;&#9;C125.059,677.308,131.287,679.651,137.959,679.651z" style="fill:#F9E3CF;"/>
		<path d="M182.291,684.536c-1.51,1.51-3.085,2.933-4.716,4.267c-4.472-7.559-11.082-13.744-18.909-17.707&#10;&#9;&#9;&#9;c3.51-3.283,6.477-7.378,8.701-12.051c0.165,0.006,0.33,0.009,0.494,0.009c3.12,0,6.141-1.014,8.665-2.938&#10;&#9;&#9;&#9;c3.048-2.323,5.009-5.693,5.522-9.49c0.473-3.503-0.37-6.884-2.143-9.65c-0.223-22.918-18.963-41.563-41.97-41.563&#10;&#9;&#9;&#9;c-23.027,0-41.78,18.677-41.971,41.623c-1.747,2.754-2.574,6.112-2.104,9.59c0.513,3.797,2.474,7.168,5.522,9.49&#10;&#9;&#9;&#9;c2.525,1.924,5.544,2.938,8.665,2.938c0.168,0,0.336-0.003,0.505-0.009c2.22,4.665,5.179,8.753,8.681,12.034&#10;&#9;&#9;&#9;c-7.826,3.958-14.433,10.147-18.902,17.716c-1.627-1.332-3.197-2.751-4.703-4.257c-11.841-11.842-18.363-27.585-18.363-44.332&#10;&#9;&#9;&#9;c0-16.746,6.521-32.49,18.363-44.331c11.841-11.841,27.585-18.363,44.331-18.363c16.746,0,32.49,6.521,44.332,18.363&#10;&#9;&#9;&#9;c11.841,11.841,18.363,27.585,18.363,44.331C200.654,656.95,194.132,672.694,182.291,684.536z" style="fill:#2D2D2D;"/>
		<g>
			<path d="M123.467,645.337c0-1.686-1.366-3.052-3.052-3.052c-1.686,0-3.052,1.366-3.052,3.052c0,1.686,1.366,3.052,3.052,3.052&#10;&#9;&#9;&#9;&#9;C122.101,648.389,123.467,647.023,123.467,645.337z"/>
			<path d="M155.504,648.389c1.686,0,3.052-1.366,3.052-3.052c0-1.686-1.366-3.052-3.052-3.052c-1.686,0-3.052,1.366-3.052,3.052&#10;&#9;&#9;&#9;&#9;C152.452,647.023,153.818,648.389,155.504,648.389z"/>
		</g>
		<path d="M137.958,665.463c2.572,0,4.985-1.373,6.298-3.582c0.437-0.736,0.195-1.687-0.54-2.124&#10;&#9;&#9;&#9;c-0.736-0.438-1.687-0.195-2.124,0.54c-0.769,1.294-2.128,2.066-3.634,2.066c-1.505,0-2.862-0.772-3.632-2.066&#10;&#9;&#9;&#9;c-0.437-0.736-1.388-0.978-2.124-0.54c-0.736,0.437-0.978,1.388-0.54,2.124C132.976,664.091,135.388,665.463,137.958,665.463z"/>
	</g>
	<g>
		<path d="M356.643,419.271C344.217,406.844,327.694,400,310.12,400c-17.574,0-34.096,6.844-46.523,19.271&#10;&#9;&#9;&#9;c-12.427,12.427-19.271,28.949-19.271,46.523c0,17.574,6.844,34.096,19.271,46.523c12.427,12.427,28.949,19.271,46.523,19.271&#10;&#9;&#9;&#9;c17.574,0,34.096-6.844,46.524-19.271c12.426-12.427,19.27-28.949,19.27-46.523C375.914,448.22,369.07,431.697,356.643,419.271z"/>
		<path d="M272.961,516.304c3.42-5.921,8.236-10.956,13.951-14.645c2.879,5.29,6.753,9.74,11.283,12.931&#10;&#9;&#9;&#9;c5.154,3.63,11.051,5.549,17.054,5.549c9.46,0,18.418-4.739,24.823-13.063c2.797,2.729,5.225,5.838,7.193,9.237&#10;&#9;&#9;&#9;c-10.702,7.904-23.595,12.175-37.146,12.175C296.564,528.488,283.665,524.213,272.961,516.304z" style="fill:#B55757;"/>
		<path d="M276.253,466.024c0.103,3.325,0.532,6.578,1.271,9.707c-0.869-0.113-1.697-0.446-2.413-0.991&#10;&#9;&#9;&#9;c-1.077-0.821-1.77-2.012-1.951-3.354c-0.181-1.342,0.171-2.674,0.992-3.751C274.704,466.908,275.429,466.362,276.253,466.024z" style="fill:#F9E3CF;"/>
		<path d="M279.402,461.85h1.976c0.856,0,1.55-0.694,1.55-1.55c0-0.856-0.694-1.55-1.55-1.55h-1.671&#10;&#9;&#9;&#9;c0.145-1.06,0.33-2.095,0.558-3.1h2.522c0.856,0,1.55-0.694,1.55-1.55c0-0.856-0.694-1.55-1.55-1.55h-1.656&#10;&#9;&#9;&#9;c0.424-1.274,0.919-2.498,1.489-3.663h4.394c0.856,0,1.55-0.694,1.55-1.55c0-0.856-0.694-1.55-1.55-1.55h-2.618&#10;&#9;&#9;&#9;c0.727-1.097,1.532-2.13,2.409-3.1h4.718c0.856,0,1.55-0.694,1.55-1.55c0-0.856-0.694-1.55-1.55-1.55h-1.385&#10;&#9;&#9;&#9;c1.766-1.381,3.739-2.568,5.908-3.551c-0.189,4.029,2.159,7.802,6.018,9.362l7.475,3.022c0.186,0.075,0.384,0.113,0.581,0.113&#10;&#9;&#9;&#9;s0.395-0.038,0.581-0.113l7.475-3.022c3.925-1.587,6.285-5.463,6.005-9.569c2.296,1.023,4.37,2.281,6.214,3.757h-1.676&#10;&#9;&#9;&#9;c-0.856,0-1.55,0.694-1.55,1.55c0,0.856,0.694,1.55,1.55,1.55h4.934c0.857,0.971,1.644,2.003,2.355,3.1h-2.779&#10;&#9;&#9;&#9;c-0.856,0-1.55,0.694-1.55,1.55c0,0.856,0.694,1.55,1.55,1.55h4.508c0.556,1.166,1.041,2.388,1.454,3.663h-1.735&#10;&#9;&#9;&#9;c-0.856,0-1.55,0.694-1.55,1.55c0,0.856,0.694,1.55,1.55,1.55h2.575c0.221,1.005,0.402,2.039,0.542,3.1h-1.708&#10;&#9;&#9;&#9;c-0.856,0-1.55,0.694-1.55,1.55c0,0.856,0.694,1.55,1.55,1.55h1.997c0.046,0.821,0.071,1.655,0.071,2.505&#10;&#9;&#9;&#9;c0,20.857-13.819,37.826-30.806,37.826c-16.983,0-30.8-16.921-30.8-37.719C279.326,463.576,279.352,462.705,279.402,461.85z" style="fill:#F9E3CF;"/>
		<path d="M310.12,436.348c0.856,0,1.55-0.694,1.55-1.55v-10.181c1.131,1.222,2.564,2.155,4.192,2.689&#10;&#9;&#9;&#9;c2.229,0.731,3.932,2.607,4.447,4.896l0.635,2.83c0.704,3.137-0.948,6.289-3.929,7.494l-6.894,2.787l-6.894-2.787&#10;&#9;&#9;&#9;c-2.981-1.205-4.634-4.357-3.929-7.494l0.635-2.83c0.514-2.289,2.218-4.165,4.447-4.896c1.627-0.534,3.06-1.466,4.192-2.689&#10;&#9;&#9;&#9;v10.181C308.57,435.654,309.264,436.348,310.12,436.348z" style="fill:#5A9E89;"/>
		<path d="M344.003,465.948c0.902,0.328,1.695,0.904,2.291,1.686c0.821,1.077,1.173,2.409,0.992,3.751&#10;&#9;&#9;&#9;c-0.181,1.342-0.874,2.533-1.951,3.354c-0.775,0.591-1.683,0.934-2.63,1.015C343.458,472.595,343.898,469.307,344.003,465.948z" style="fill:#F9E3CF;"/>
		<path d="M310.126,505.281c6.555,0,12.818-2.221,18.203-6.367c3.406,1.603,6.58,3.653,9.441,6.071&#10;&#9;&#9;&#9;c-5.825,7.678-13.962,12.055-22.52,12.055c-5.361,0-10.641-1.723-15.269-4.983c-4.173-2.939-7.746-7.065-10.404-11.985&#10;&#9;&#9;&#9;c0.753-0.412,1.52-0.801,2.298-1.167C297.267,503.056,303.548,505.281,310.126,505.281z" style="fill:#F9E3CF;"/>
		<path d="M354.451,510.125c-1.51,1.51-3.085,2.933-4.716,4.267c-4.458-7.536-11.041-13.706-18.837-17.671&#10;&#9;&#9;&#9;c1.153-1.082,2.256-2.259,3.302-3.531c3.406-4.143,5.988-9.016,7.65-14.327c0.143,0.007,0.286,0.014,0.429,0.014&#10;&#9;&#9;&#9;c0.272,0,0.542-0.018,0.811-0.045v2.742c0,0.856,0.694,1.55,1.55,1.55c0.856,0,1.55-0.694,1.55-1.55v-3.707&#10;&#9;&#9;&#9;c0.354-0.195,0.697-0.413,1.024-0.663c1.736-1.323,2.852-3.242,3.144-5.404c0.292-2.162-0.275-4.309-1.598-6.045&#10;&#9;&#9;&#9;c-1.189-1.56-2.861-2.618-4.757-3.028c-0.248-7.586-2.245-14.116-5.948-19.427c-3.482-4.995-8.509-8.817-14.572-11.102&#10;&#9;&#9;&#9;l-0.152-0.676c-0.752-3.348-3.244-6.093-6.505-7.162c-1.937-0.635-3.477-2.087-4.226-3.982l-1.041-2.633&#10;&#9;&#9;&#9;c-0.234-0.592-0.805-0.98-1.441-0.98c-0.636,0-1.208,0.389-1.441,0.98l-1.04,2.633c-0.749,1.895-2.289,3.347-4.226,3.982&#10;&#9;&#9;&#9;c-3.26,1.069-5.753,3.814-6.505,7.162l-0.197,0.879c-6.118,2.344-10.996,6.061-14.503,11.064&#10;&#9;&#9;&#9;c-3.695,5.272-5.692,11.76-5.951,19.302c-1.82,0.438-3.422,1.479-4.572,2.988c-1.322,1.736-1.89,3.882-1.598,6.045&#10;&#9;&#9;&#9;c0.292,2.162,1.409,4.082,3.144,5.404c1.438,1.096,3.157,1.673,4.934,1.673c0.071,0,0.143-0.005,0.215-0.007&#10;&#9;&#9;&#9;c1.661,5.334,4.252,10.225,7.675,14.375c1.029,1.247,2.114,2.403,3.247,3.466c-7.786,3.96-14.36,10.13-18.811,17.67&#10;&#9;&#9;&#9;c-1.627-1.332-3.197-2.751-4.703-4.257c-11.841-11.841-18.363-27.585-18.363-44.331c0-16.746,6.521-32.49,18.363-44.331&#10;&#9;&#9;&#9;c11.841-11.841,27.585-18.363,44.331-18.363c16.746,0,32.49,6.521,44.332,18.363c11.841,11.841,18.363,27.585,18.363,44.331&#10;&#9;&#9;&#9;C372.814,482.54,366.293,498.284,354.451,510.125z" style="fill:#2D2D2D;"/>
		<path d="M310.119,494.011c2.412,0,4.641-0.664,5.964-1.776c0.655-0.551,0.739-1.529,0.189-2.184&#10;&#9;&#9;&#9;c-0.551-0.655-1.529-0.74-2.184-0.189c-0.575,0.484-1.96,1.048-3.969,1.048c-2.007,0-3.391-0.565-3.966-1.048&#10;&#9;&#9;&#9;c-0.656-0.551-1.633-0.467-2.184,0.188c-0.551,0.655-0.467,1.633,0.188,2.184C305.479,493.347,307.708,494.011,310.119,494.011z"/>
		<g>
			<path d="M291.792,471.469c-0.436,1.628,0.531,3.302,2.159,3.737c1.628,0.436,3.302-0.531,3.737-2.159&#10;&#9;&#9;&#9;&#9;c0.043-0.161,0.069-0.323,0.085-0.484l1.603,0.304c0.098,0.019,0.195,0.028,0.291,0.028c0.73,0,1.38-0.518,1.521-1.261&#10;&#9;&#9;&#9;&#9;c0.16-0.841-0.393-1.652-1.233-1.812l-9.746-1.85c-0.841-0.16-1.652,0.393-1.812,1.234c-0.16,0.841,0.393,1.652,1.234,1.812&#10;&#9;&#9;&#9;&#9;l2.174,0.413C291.801,471.443,291.796,471.455,291.792,471.469z"/>
			<path d="M320.572,472.895c0.096,0,0.193-0.009,0.291-0.028l1.564-0.297c0.206,1.485,1.478,2.63,3.02,2.63&#10;&#9;&#9;&#9;&#9;c1.686,0,3.052-1.366,3.052-3.052c0-0.246-0.032-0.484-0.087-0.714l2.197-0.417c0.841-0.16,1.393-0.971,1.234-1.812&#10;&#9;&#9;&#9;&#9;s-0.972-1.394-1.811-1.234l-9.746,1.85c-0.841,0.16-1.393,0.971-1.234,1.812C319.193,472.377,319.843,472.895,320.572,472.895z"/>
		</g>
	</g>
	<g>
		<path d="M708.523,593.53c-12.427-12.427-28.949-19.271-46.523-19.271c-17.574,0-34.096,6.844-46.523,19.271&#10;&#9;&#9;&#9;c-12.427,12.427-19.271,28.949-19.271,46.523c0,17.574,6.844,34.096,19.271,46.523c12.427,12.427,28.949,19.271,46.523,19.271&#10;&#9;&#9;&#9;c17.574,0,34.096-6.844,46.523-19.271c12.427-12.427,19.271-28.949,19.271-46.523C727.794,622.479,720.95,605.957,708.523,593.53z"/>
		<path d="M624.841,690.563c3.418-5.917,8.23-10.949,13.94-14.638c6.3,7.198,14.501,11.147,23.235,11.147&#10;&#9;&#9;&#9;c6.772,0,13.309-2.405,18.902-6.955c1.526-1.241,2.97-2.635,4.31-4.153c5.699,3.689,10.502,8.71,13.917,14.608&#10;&#9;&#9;&#9;c-10.702,7.904-23.595,12.175-37.146,12.175C648.444,702.747,635.545,698.472,624.841,690.563z" style="fill:#F9A0A9;"/>
		<path d="M620.342,621.266l-0.347-6.666c-0.009-0.175-0.018-0.355-0.018-0.528&#10;&#9;&#9;&#9;c0-3.648,1.97-7.013,5.141-8.782c2.116-1.181,4.515-1.552,6.828-1.1c-1.274,1.983-1.312,4.561-0.104,6.579&#10;&#9;&#9;&#9;c-4.826,6.351-7.695,14.266-7.695,22.84c0,2.1,0.154,4.082,0.468,6.033c-0.104,0.121-0.206,0.245-0.304,0.373&#10;&#9;&#9;&#9;c-1.323,1.736-1.89,3.882-1.598,6.045c0.058,0.431,0.151,0.851,0.272,1.26l-9.03,2.904&#10;&#9;&#9;&#9;C618.664,641.32,620.865,631.39,620.342,621.266z" style="fill:#F4CC7A;"/>
		<path d="M710.15,650.311l-9.173-2.91c0.134-0.434,0.236-0.881,0.298-1.341&#10;&#9;&#9;&#9;c0.292-2.162-0.276-4.309-1.598-6.045c-0.115-0.151-0.236-0.295-0.36-0.437c0.403-2.16,0.46-4.296,0.46-5.97&#10;&#9;&#9;&#9;c0-8.329-2.687-16.273-7.64-22.806c1.218-2.001,1.202-4.555-0.043-6.544c2.332-0.48,4.747-0.122,6.872,1.064&#10;&#9;&#9;&#9;c3.175,1.771,5.148,5.13,5.148,8.765c0,0.175-0.006,0.345-0.014,0.515l-0.345,6.667&#10;&#9;&#9;&#9;C703.23,631.438,705.434,641.396,710.15,650.311z" style="fill:#F4CC7A;"/>
		<path d="M697.211,641.894c0.821,1.077,1.173,2.409,0.992,3.751c-0.181,1.342-0.874,2.533-1.951,3.354&#10;&#9;&#9;&#9;c-0.496,0.378-1.047,0.657-1.627,0.83c0.574-2.674,0.884-5.675,0.967-9.324C696.217,640.843,696.768,641.312,697.211,641.894z" style="fill:#F9E3CF;"/>
		<path d="M689.041,605.359c0.746,0.747,1.033,1.788,0.86,2.76c-0.275-0.301-0.553-0.599-0.838-0.892&#10;&#9;&#9;&#9;l-0.042-0.043c-1.668-1.702-3.9-2.79-6.284-3.063l-0.069-0.008l-0.199-0.372c-0.015-0.028-0.032-0.055-0.047-0.083l0.703-0.49&#10;&#9;&#9;&#9;l0.106-0.072c1.232-0.821,2.888-0.657,3.937,0.39L689.041,605.359z" style="fill:#F9A0A9;"/>
		<path d="M679.737,605.206l0.583,1.087c0.24,0.448,0.684,0.75,1.189,0.807l0.875,0.1&#10;&#9;&#9;&#9;c1.68,0.193,3.251,0.958,4.424,2.154c0.001,0.001,0.026,0.026,0.027,0.028c6.348,6.519,9.843,15.122,9.843,24.226&#10;&#9;&#9;&#9;c0,1.192-0.03,2.522-0.184,3.889c-0.698-0.309-1.444-0.522-2.221-0.627c-0.049-0.007-0.653-0.018-0.9-0.025&#10;&#9;&#9;&#9;c-13.302-0.415-15.745-11.814-16.115-14.173l0.927-1.744c0.402-0.756,0.115-1.694-0.641-2.096&#10;&#9;&#9;&#9;c-0.756-0.402-1.694-0.115-2.096,0.641l-2.362,4.441c-3.659,6.88-11.46,10.231-18.969,8.15c-1.703-0.472-3.462-0.711-5.228-0.711&#10;&#9;&#9;&#9;c-3.449,0-6.849,0.914-9.833,2.644c-2.783,1.614-5.983,2.604-9.256,2.865c-0.014,0.001-1.658,0.345-2.346,0.653&#10;&#9;&#9;&#9;c-0.139-1.265-0.207-2.558-0.207-3.906c0-19.146,15.574-34.722,34.718-34.722c4.995,0,9.814,1.037,14.304,3.074l0.046,0.021&#10;&#9;&#9;&#9;C677.761,602.642,678.977,603.787,679.737,605.206z" style="fill:#F4CC7A;"/>
		<path d="M634.094,608.073c-0.155-0.96,0.133-1.981,0.863-2.712l1.877-1.874&#10;&#9;&#9;&#9;c0.868-0.868,2.153-1.126,3.269-0.723C637.916,604.319,635.903,606.1,634.094,608.073z" style="fill:#F9A0A9;"/>
		<path d="M626.778,641.894c0.464-0.609,1.047-1.096,1.708-1.436c0.151,2.359,0.47,6.352,1.037,9.415&#10;&#9;&#9;&#9;c-0.639-0.168-1.245-0.462-1.786-0.874c-1.077-0.821-1.77-2.012-1.951-3.354C625.605,644.303,625.957,642.971,626.778,641.894z" style="fill:#F9E3CF;"/>
		<path d="M640.611,636.679c2.512-1.456,5.374-2.226,8.278-2.226c1.486,0,2.967,0.201,4.401,0.598&#10;&#9;&#9;&#9;c4.282,1.186,8.888,0.874,12.97-0.88c3.639-1.564,6.731-4.22,8.837-7.558c0.487,1.393,1.198,3.015,2.229,4.641&#10;&#9;&#9;&#9;c2.366,3.732,6.913,8.138,15.176,8.652c-0.076,4.642-0.514,8.151-1.395,11.222c-2.208,7.688-6.52,14.44-12.143,19.012&#10;&#9;&#9;&#9;c-5.035,4.095-10.895,6.26-16.948,6.26c-13.027,0-24.694-10.157-29.033-25.275c-0.836-2.905-1.268-8.654-1.431-11.34&#10;&#9;&#9;&#9;C634.754,639.335,637.86,638.274,640.611,636.679z" style="fill:#F9E3CF;"/>
		<path d="M662.016,679.5c6.467,0,12.716-2.197,18.136-6.355c0.802,0.376,1.591,0.777,2.367,1.201&#10;&#9;&#9;&#9;c-1.116,1.223-2.307,2.351-3.555,3.367c-5.035,4.095-10.895,6.26-16.947,6.26c-7.649,0-14.875-3.417-20.525-9.662&#10;&#9;&#9;&#9;c0.774-0.422,1.561-0.821,2.362-1.195C649.164,677.191,655.427,679.5,662.016,679.5z" style="fill:#F9E3CF;"/>
		<path d="M706.331,684.384c-1.51,1.51-3.085,2.933-4.716,4.267c-4.467-7.551-11.068-13.731-18.884-17.695&#10;&#9;&#9;&#9;c4.953-4.628,8.804-10.848,11.013-17.838c1.581-0.106,3.097-0.672,4.387-1.655c0.502-0.382,0.95-0.815,1.343-1.289l13.54,4.295&#10;&#9;&#9;&#9;c0.154,0.049,0.312,0.073,0.469,0.073c0.47,0,0.926-0.215,1.225-0.6c0.398-0.513,0.434-1.22,0.09-1.771&#10;&#9;&#9;&#9;c-5.76-9.228-8.508-19.858-7.946-30.742l0.345-6.672c0.011-0.226,0.018-0.445,0.018-0.671c0-4.759-2.582-9.154-6.737-11.472&#10;&#9;&#9;&#9;c-3.312-1.848-7.157-2.163-10.714-0.919l-0.403-0.403c-2.09-2.087-5.39-2.414-7.852-0.773l-0.96,0.668&#10;&#9;&#9;&#9;c-0.857-0.838-1.853-1.529-2.943-2.027c-0.001,0-0.032-0.015-0.033-0.015c-4.915-2.23-10.165-3.36-15.605-3.36&#10;&#9;&#9;&#9;c-6.906,0-13.385,1.863-18.963,5.11l-0.453-0.335l-0.063-0.044c-2.458-1.637-5.757-1.31-7.844,0.777l-0.332,0.332&#10;&#9;&#9;&#9;c-3.545-1.221-7.389-0.892-10.702,0.958c-4.152,2.315-6.731,6.718-6.731,11.489c0,0.223,0.011,0.453,0.022,0.684l0.347,6.67&#10;&#9;&#9;&#9;c0.56,10.844-2.189,21.453-7.948,30.679c-0.344,0.552-0.308,1.26,0.092,1.773c0.299,0.384,0.753,0.597,1.223,0.597&#10;&#9;&#9;&#9;c0.158,0,0.318-0.024,0.474-0.075l13.367-4.298c0.407,0.502,0.876,0.959,1.403,1.361c1.317,1.004,2.871,1.573,4.489,1.661&#10;&#9;&#9;&#9;c2.263,7.188,6.1,13.281,10.931,17.798c-7.828,3.958-14.438,10.148-18.907,17.718c-1.627-1.332-3.197-2.751-4.703-4.257&#10;&#9;&#9;&#9;c-11.841-11.841-18.363-27.585-18.363-44.331c0-16.746,6.521-32.49,18.363-44.331c11.841-11.841,27.585-18.363,44.331-18.363&#10;&#9;&#9;&#9;c16.746,0,32.49,6.521,44.332,18.363c11.841,11.841,18.363,27.585,18.363,44.331C724.694,656.799,718.173,672.543,706.331,684.384&#10;&#9;&#9;&#9;z" style="fill:#45E599;"/>
		<path d="M654.998,664.726c1.908,1.285,4.394,1.992,7,1.992c2.609,0,5.097-0.708,7.004-1.992c0.71-0.478,0.898-1.441,0.42-2.151&#10;&#9;&#9;&#9;c-0.478-0.71-1.441-0.898-2.151-0.42c-1.401,0.944-3.274,1.463-5.273,1.463c-1.996,0-3.868-0.52-5.269-1.463&#10;&#9;&#9;&#9;c-0.71-0.478-1.673-0.29-2.151,0.42C654.1,663.285,654.288,664.248,654.998,664.726z"/>
		<g>
			<path d="M678.929,648.904c0.545-0.475,0.879-1.102,0.997-1.762c0.3,0.291,0.688,0.438,1.076,0.438&#10;&#9;&#9;&#9;&#9;c0.396,0,0.792-0.151,1.094-0.452c0.606-0.604,0.608-1.586,0.003-2.192c-1.564-1.569-3.889-2.054-5.933-1.287&#10;&#9;&#9;&#9;&#9;c-0.448,0.114-0.877,0.329-1.25,0.654c-1.27,1.108-1.402,3.036-0.294,4.306C675.731,649.88,677.659,650.012,678.929,648.904z"/>
			<path d="M642.999,647.168c0.302,0,0.603-0.093,0.868-0.273c0.05,0.648,0.304,1.285,0.773,1.805&#10;&#9;&#9;&#9;&#9;c1.129,1.252,3.058,1.352,4.311,0.224c1.252-1.129,1.352-3.058,0.224-4.31c-0.287-0.318-0.625-0.561-0.991-0.729&#10;&#9;&#9;&#9;&#9;c-1.954-1.066-4.373-0.877-6.143,0.516c-0.673,0.529-0.789,1.504-0.259,2.176C642.086,646.965,642.54,647.168,642.999,647.168z"/>
		</g>
	</g>
	<g>
		<path d="M535.692,419.794c-12.427-12.427-28.949-19.271-46.523-19.271c-17.574,0-34.096,6.844-46.523,19.271&#10;&#9;&#9;&#9;c-12.427,12.427-19.271,28.949-19.271,46.523c0,17.574,6.844,34.096,19.271,46.523c12.427,12.427,28.949,19.271,46.523,19.271&#10;&#9;&#9;&#9;c17.574,0,34.097-6.844,46.523-19.271c12.427-12.427,19.271-28.949,19.271-46.523&#10;&#9;&#9;&#9;C554.962,448.743,548.118,432.221,535.692,419.794z"/>
		<path d="M452.859,509.365l-2.854-3.924c-1.953-2.686-2.279-6.225-0.85-9.222l2.658-5.572&#10;&#9;&#9;&#9;c1.609-3.374,0.492-7.34-2.513-9.562c-2.385-1.763-3.132-5.045-1.735-7.67c3.347-6.286,5.9-13.286,7.59-20.805&#10;&#9;&#9;&#9;c1.718-7.645,5.967-14.598,11.965-19.579c6.208-5.155,13.724-7.88,21.737-7.88c15.185,0,20.337,8.089,21.728,11.101&#10;&#9;&#9;&#9;c0.221,0.478,0.596,1.811,0.652,2.169c0.304,1.943,0.488,4.515,0.018,5.845c-0.276,0.781,0.092,1.675,0.859,1.989&#10;&#9;&#9;&#9;c0.193,0.079,0.393,0.116,0.588,0.116c0.633,0,1.228-0.391,1.457-1.021c0.696-1.913,0.508-4.733,0.244-6.695&#10;&#9;&#9;&#9;c1.852,0.563,3.448,1.782,4.448,3.457c3.194,5.351,4.882,11.493,4.882,17.761v0.322c0,1.16-0.028,2.326-0.076,3.487l0,0&#10;&#9;&#9;&#9;c-1.198-0.263-2.36-0.68-3.437-1.268c-4.319-2.359-8.009-5.701-10.789-9.777c0.562-0.491,1-1.135,1.242-1.89&#10;&#9;&#9;&#9;c0.271-0.845-0.166-1.792-1.017-2.041c-0.824-0.241-1.687,0.235-1.924,1.06c-0.162,0.565-0.765,0.919-1.338,0.786l-10.925-2.536&#10;&#9;&#9;&#9;L495.394,448c-1.931-0.428-3.912-0.023-5.546,1.141c-1.538,1.095-2.545,2.788-2.887,4.645l-0.543,2.952&#10;&#9;&#9;&#9;c-0.763,4.146-4.643,7.032-8.832,6.575l-8.068-0.883c-2.366-0.26-4.737,0.503-6.508,2.091c-2.184,1.958-3.219,4.96-2.618,7.913&#10;&#9;&#9;&#9;c0.379,1.865,1.442,3.522,2.905,4.74l0.092,0.076c2.936,2.445,3.91,6.532,2.391,10.038l-0.106,0.245&#10;&#9;&#9;&#9;c-2.725,6.29-3.04,13.337-0.888,19.844l1.302,3.938c1.433,4.339,1.551,9.064,0.365,13.469c-4.931-1.914-9.609-4.461-13.938-7.594&#10;&#9;&#9;&#9;c0.671-0.77,1.153-1.7,1.387-2.718C454.31,512.7,453.93,510.838,452.859,509.365z" style="fill:#2D2D2D;"/>
		<path d="M524.534,503.82c0.147,2.62,1.334,4.993,3.342,6.681l3.058,2.571&#10;&#9;&#9;&#9;c-0.705,0.631-1.421,1.247-2.15,1.843c-4.471-7.559-11.081-13.744-18.909-17.707c4.892-4.575,8.724-10.728,10.968-17.823&#10;&#9;&#9;&#9;c0.162,0.01,0.323,0.016,0.484,0.016c0.841,0,1.668-0.134,2.46-0.386l4.576,11.017c0.958,2.305,0.465,4.965-1.254,6.774&#10;&#9;&#9;&#9;C525.301,498.709,524.387,501.2,524.534,503.82z" style="fill:#2D2D2D;"/>
		<path d="M489.168,505.764c4.55,0,8.892-1.092,12.86-3.065c-0.505,6.666-6.088,11.937-12.882,11.937&#10;&#9;&#9;&#9;c-6.789,0-12.367-5.262-12.881-11.919C480.294,504.715,484.654,505.764,489.168,505.764z" style="fill:#F9E3CF;"/>
		<path d="M489.168,502.664c-8.205,0-15.88-3.901-21.692-11.001c0.287-0.981,0.631-1.949,1.042-2.896&#10;&#9;&#9;&#9;l0.106-0.245c2.051-4.735,0.715-10.349-3.251-13.651l-0.206-0.171c-1.172-0.976-1.844-2.411-1.844-3.936&#10;&#9;&#9;&#9;c0-1.499,0.64-2.933,1.757-3.934c1.116-1.001,2.612-1.481,4.102-1.318l8.068,0.883c5.798,0.633,11.163-3.361,12.218-9.096&#10;&#9;&#9;&#9;l0.57-3.097c0.199-1.081,0.813-2.01,1.728-2.617c0.885-0.586,1.936-0.785,2.956-0.559l10.973,2.546&#10;&#9;&#9;&#9;c0.236,0.055,0.471,0.085,0.706,0.099c3.356,5.193,8.025,9.361,13.558,12.1C519.536,486.203,505.886,502.664,489.168,502.664z" style="fill:#F9E3CF;"/>
		<path d="M466.678,495.46c0.563,0.606,1.14,1.19,1.73,1.746c-0.65,0.329-1.294,0.673-1.928,1.033&#10;&#9;&#9;&#9;C466.495,497.31,466.559,496.383,466.678,495.46z"/>
		<path d="M526.334,471.909c-0.181,1.342-0.874,2.533-1.951,3.354c-0.787,0.6-1.711,0.946-2.675,1.02&#10;&#9;&#9;&#9;c0.734-3.03,1.186-6.204,1.317-9.478c0.93,0.312,1.736,0.849,2.33,1.57C526.174,469.37,526.513,470.592,526.334,471.909z"/>
		<path d="M469.376,525.838c1.413-5.057,1.303-10.5-0.346-15.493l-1.302-3.939&#10;&#9;&#9;&#9;c-0.507-1.532-0.855-3.099-1.055-4.677c1.389-0.858,2.831-1.638,4.308-2.33c0.706,0.545,1.428,1.057,2.163,1.534&#10;&#9;&#9;&#9;c-0.013,0.261-0.021,0.522-0.021,0.781c0,8.834,7.188,16.021,16.023,16.021c8.835,0,16.023-7.187,16.023-16.021&#10;&#9;&#9;&#9;c0-0.268-0.007-0.535-0.02-0.798c0.733-0.475,1.449-0.982,2.149-1.519c7.937,3.715,14.625,9.852,19.017,17.438&#10;&#9;&#9;&#9;c-10.702,7.904-23.595,12.175-37.146,12.175C482.339,529.011,475.676,527.926,469.376,525.838z" style="fill:#FFFFFF;"/>
		<path d="M533.5,510.649c-0.097,0.096-0.196,0.19-0.293,0.286l-3.337-2.805&#10;&#9;&#9;&#9;c-1.347-1.133-2.144-2.725-2.242-4.482c-0.098-1.758,0.515-3.428,1.727-4.705c2.563-2.698,3.297-6.662,1.87-10.098l-4.703-11.324&#10;&#9;&#9;&#9;c1.586-1.312,2.607-3.144,2.884-5.195c0.292-2.163-0.297-4.265-1.658-5.919c-0.323-0.392-0.682-0.749-1.072-1.071&#10;&#9;&#9;&#9;c0.102-1.703,0.157-3.427,0.157-5.138v-0.322c0-6.827-1.839-13.518-5.32-19.35c-1.707-2.859-4.647-4.773-7.955-5.217&#10;&#9;&#9;&#9;c-0.689-1.602-2.262-4.486-5.444-7.172c-4.782-4.037-11.261-6.084-19.258-6.084c-8.745,0-16.947,2.972-23.717,8.595&#10;&#9;&#9;&#9;c-6.522,5.416-11.142,12.975-13.009,21.284c-1.629,7.248-4.085,13.986-7.302,20.028c-2.137,4.014-0.963,9.042,2.731,11.694&#10;&#9;&#9;&#9;c1.793,1.287,2.405,3.668,1.455,5.66l-2.658,5.573c-1.921,4.027-1.483,8.771,1.141,12.379l2.854,3.924&#10;&#9;&#9;&#9;c0.543,0.746,0.735,1.69,0.528,2.589c-0.135,0.584-0.431,1.109-0.844,1.526c-1.804-1.447-3.541-2.997-5.2-4.655&#10;&#9;&#9;&#9;c-11.841-11.841-18.363-27.585-18.363-44.331c0-16.746,6.521-32.49,18.363-44.331c11.841-11.841,27.585-18.363,44.331-18.363&#10;&#9;&#9;&#9;c16.746,0,32.49,6.521,44.332,18.363c11.841,11.841,18.363,27.585,18.363,44.331C551.862,483.063,545.341,498.807,533.5,510.649z" style="fill:#9970C4;"/>
		<path d="M492.087,490.481c-0.786,0.755-1.823,1.171-2.92,1.171c-1.095,0-2.132-0.416-2.918-1.171&#10;&#9;&#9;&#9;c-0.617-0.592-1.598-0.573-2.191,0.045c-0.593,0.617-0.573,1.599,0.045,2.191c1.367,1.312,3.165,2.034,5.065,2.034&#10;&#9;&#9;&#9;c1.901,0,3.701-0.723,5.067-2.034c0.617-0.593,0.637-1.574,0.045-2.191C493.686,489.909,492.705,489.889,492.087,490.481z"/>
		<path d="M477.713,471.111c-1.506-1.616-3.84-2.207-5.952-1.464c-0.824,0.29-1.754,0.123-2.426-0.435&#10;&#9;&#9;&#9;c-0.659-0.547-1.636-0.456-2.182,0.203c-0.546,0.659-0.455,1.636,0.204,2.182c1.488,1.234,3.537,1.611,5.366,0.994&#10;&#9;&#9;&#9;c-0.17,0.637-0.138,1.332,0.142,1.985c0.664,1.549,2.458,2.268,4.007,1.604s2.268-2.458,1.604-4.007&#10;&#9;&#9;&#9;C478.296,471.754,478.032,471.398,477.713,471.111z"/>
		<path d="M510.98,471.598c0.659-0.546,0.75-1.523,0.204-2.182c-0.547-0.659-1.524-0.75-2.182-0.203&#10;&#9;&#9;&#9;c-0.672,0.558-1.602,0.724-2.426,0.435c-2.111-0.742-4.445-0.152-5.952,1.464c-0.318,0.287-0.583,0.643-0.762,1.062&#10;&#9;&#9;&#9;c-0.664,1.549,0.055,3.344,1.604,4.007s3.344-0.055,4.007-1.604c0.28-0.653,0.311-1.348,0.142-1.985&#10;&#9;&#9;&#9;C507.442,473.208,509.492,472.832,510.98,471.598z"/>
	</g>
	<g>
		<path d="M184.317,419.271C171.891,406.844,155.368,400,137.794,400c-17.574,0-34.097,6.844-46.523,19.271&#10;&#9;&#9;&#9;C78.844,431.697,72,448.22,72,465.794c0,17.574,6.844,34.096,19.271,46.523c12.427,12.427,28.949,19.271,46.523,19.271&#10;&#9;&#9;&#9;c17.574,0,34.097-6.844,46.523-19.271c12.426-12.427,19.27-28.949,19.27-46.523C203.588,448.22,196.744,431.697,184.317,419.271z"/>
		<path d="M100.838,469.389c0.1,1.128,0.186,2.255,0.264,3.379c-0.193-0.434-0.327-0.898-0.393-1.383&#10;&#9;&#9;&#9;C100.618,470.703,100.667,470.027,100.838,469.389z" style="fill:#F9E3CF;"/>
		<path d="M129.917,420.022c0-4.33,3.522-7.852,7.852-7.852c4.33,0,7.852,3.522,7.852,7.852&#10;&#9;&#9;&#9;c0,0.775-0.112,1.529-0.33,2.254c-2.424-0.49-4.931-0.748-7.497-0.748c-2.583,0-5.106,0.261-7.545,0.757&#10;&#9;&#9;&#9;C130.03,421.557,129.917,420.8,129.917,420.022z" style="fill:#F4CC7A;"/>
		<path d="M137.794,424.628c19.137,0,34.706,15.576,34.706,34.722c0,1.327-0.081,2.679-0.242,4.02&#10;&#9;&#9;&#9;c-0.433,3.616-0.763,7.28-0.98,10.888c-0.069,1.146-0.152,2.65-0.249,4.411c-0.209,3.778-0.48,8.698-0.817,13.779l-1.904-28.862&#10;&#9;&#9;&#9;c0.79-1.879,2.485-7.043,1.039-14.22c-0.169-0.839-0.985-1.381-1.826-1.213c-0.839,0.169-1.382,0.986-1.213,1.825&#10;&#9;&#9;&#9;c1.102,5.468,0.127,9.608-0.557,11.6c-0.45-0.168-0.902-0.329-1.355-0.488c0.399-2.206,0.595-5.272-0.112-8.938&#10;&#9;&#9;&#9;c-0.162-0.841-0.976-1.39-1.815-1.228c-0.84,0.162-1.39,0.975-1.228,1.815c0.576,2.984,0.472,5.493,0.179,7.365&#10;&#9;&#9;&#9;c-15.428-4.774-31.827-4.774-47.255,0.001c-0.294-1.872-0.399-4.382,0.176-7.366c0.162-0.84-0.388-1.653-1.229-1.815&#10;&#9;&#9;&#9;c-0.841-0.161-1.653,0.388-1.815,1.229c-0.706,3.667-0.508,6.733-0.109,8.938c-0.453,0.159-0.905,0.32-1.356,0.488&#10;&#9;&#9;&#9;c-0.197-0.569-0.418-1.31-0.605-2.208c-0.427-2.046-0.766-5.336,0.052-9.394c0.169-0.839-0.374-1.656-1.213-1.825&#10;&#9;&#9;&#9;c-0.838-0.168-1.656,0.374-1.826,1.213c-1.447,7.177,0.249,12.342,1.039,14.221l-1.905,28.862&#10;&#9;&#9;&#9;c-0.337-5.083-0.608-10.002-0.816-13.78c-0.097-1.76-0.18-3.265-0.249-4.411c-0.218-3.61-0.548-7.273-0.98-10.888&#10;&#9;&#9;&#9;c-0.16-1.341-0.242-2.693-0.242-4.02C103.088,440.204,118.657,424.628,137.794,424.628z" style="fill:#F4CC7A;"/>
		<path d="M174.838,471.385c-0.06,0.442-0.178,0.867-0.344,1.269c0.074-1.046,0.155-2.094,0.247-3.143&#10;&#9;&#9;&#9;C174.886,470.112,174.924,470.746,174.838,471.385z" style="fill:#F9E3CF;"/>
		<path d="M108.061,498.826l0.869-13.164c2.113,4.225,4.854,7.951,8.116,11.016&#10;&#9;&#9;&#9;c-3.23,1.636-6.253,3.651-9.003,5.988L108.061,498.826z" style="fill:#F4CC7A;"/>
		<path d="M120.405,495.53c-4.974-4.214-8.773-10.05-11.012-16.892l0.919-13.93&#10;&#9;&#9;&#9;c17.762-6.785,37.202-6.785,54.963,0l0.919,13.931c-4.831,14.303-15.937,23.525-28.391,23.525&#10;&#9;&#9;&#9;C131.544,502.164,125.527,499.87,120.405,495.53z" style="fill:#F9E3CF;"/>
		<path d="M167.527,498.826l0.018,3.875c-2.762-2.349-5.801-4.374-9.048-6.017&#10;&#9;&#9;&#9;c3.21-3.026,5.981-6.77,8.156-11.101L167.527,498.826z" style="fill:#F4CC7A;"/>
		<path d="M139.344,505.217c6.024-0.328,11.708-2.568,16.588-6.338c4.3,2.014,8.233,4.738,11.633,8.018&#10;&#9;&#9;&#9;l0.046,9.605c0.004,0.781,0.588,1.437,1.363,1.531c0.063,0.008,0.126,0.011,0.189,0.011c0.701,0,1.326-0.476,1.501-1.172&#10;&#9;&#9;&#9;c0.344-1.365,0.663-3.247,0.958-5.472c1.215,1.555,2.325,3.196,3.317,4.911c-10.293,7.602-22.613,11.843-35.596,12.156V505.217z" style="fill:#9CE5D0;"/>
		<path d="M104.924,516.874c0.191,0.757,0.915,1.255,1.69,1.16c0.775-0.094,1.359-0.75,1.363-1.531&#10;&#9;&#9;&#9;l0.046-9.641c3.389-3.27,7.308-5.984,11.59-7.989c4.986,3.85,10.681,6.021,16.631,6.344v23.252&#10;&#9;&#9;&#9;c-12.988-0.313-25.313-4.558-35.609-12.166c0.995-1.722,2.107-3.37,3.326-4.931C104.258,513.61,104.579,515.503,104.924,516.874z" style="fill:#9CE5D0;"/>
		<path d="M182.125,510.125c-1.51,1.51-3.085,2.933-4.716,4.267c-1.526-2.58-3.303-4.999-5.291-7.226&#10;&#9;&#9;&#9;c0.936-8.958,1.593-20.855,2.005-28.328c0.024-0.428,0.046-0.841,0.068-1.238c2.024-1.285,3.391-3.393,3.717-5.801&#10;&#9;&#9;&#9;c0.369-2.727-0.646-5.402-2.671-7.198c0.033-0.288,0.063-0.577,0.097-0.865c0.175-1.463,0.264-2.939,0.264-4.388&#10;&#9;&#9;&#9;c0-17.207-11.546-31.765-27.294-36.333c0.275-0.966,0.414-1.968,0.414-2.995c0-6.039-4.913-10.952-10.952-10.952&#10;&#9;&#9;&#9;c-6.039,0-10.952,4.913-10.952,10.952c0,1.032,0.14,2.039,0.418,3.009c-15.724,4.583-27.247,19.129-27.247,36.319&#10;&#9;&#9;&#9;c0,1.449,0.089,2.925,0.264,4.388c0.033,0.277,0.062,0.556,0.094,0.834c-2.049,1.794-3.078,4.481-2.708,7.227&#10;&#9;&#9;&#9;c0.326,2.429,1.71,4.549,3.76,5.83c0.022,0.388,0.044,0.791,0.067,1.21c0.412,7.464,1.067,19.342,2.002,28.296&#10;&#9;&#9;&#9;c-1.992,2.232-3.771,4.658-5.3,7.247c-1.627-1.332-3.197-2.751-4.703-4.257C81.621,498.284,75.1,482.54,75.1,465.794&#10;&#9;&#9;&#9;c0-16.746,6.521-32.49,18.363-44.331c11.841-11.841,27.585-18.363,44.332-18.363c16.746,0,32.49,6.521,44.331,18.363&#10;&#9;&#9;&#9;c11.841,11.841,18.363,27.585,18.363,44.331C200.488,482.54,193.967,498.284,182.125,510.125z" style="fill:#F9A0A9;"/>
		<path d="M143.216,488.108c-0.593-0.617-1.574-0.637-2.191-0.045c-0.87,0.836-2.018,1.296-3.233,1.296&#10;&#9;&#9;&#9;c-1.212,0-2.359-0.46-3.23-1.296c-0.617-0.592-1.598-0.573-2.191,0.045c-0.593,0.617-0.573,1.599,0.045,2.191&#10;&#9;&#9;&#9;c1.451,1.393,3.36,2.159,5.376,2.159c2.018,0,3.929-0.767,5.379-2.16C143.789,489.707,143.809,488.726,143.216,488.108z"/>
		<path d="M154.37,474.833c0.607-0.392,1.027-0.963,1.239-1.599c0.305,0.394,0.762,0.603,1.226,0.603c0.322,0,0.646-0.1,0.924-0.306&#10;&#9;&#9;&#9;c0.687-0.511,0.829-1.482,0.318-2.169c-1.322-1.777-3.553-2.592-5.685-2.127c-0.46,0.049-0.916,0.2-1.332,0.468&#10;&#9;&#9;&#9;c-1.417,0.914-1.824,2.803-0.911,4.219C151.065,475.339,152.954,475.746,154.37,474.833z"/>
		<path d="M124.377,469.703c-0.36-0.232-0.751-0.378-1.148-0.445c-2.165-0.518-4.45,0.297-5.794,2.104&#10;&#9;&#9;&#9;c-0.511,0.687-0.368,1.658,0.318,2.169c0.278,0.207,0.602,0.306,0.924,0.306c0.439,0,0.872-0.188,1.175-0.542&#10;&#9;&#9;&#9;c0.218,0.611,0.629,1.159,1.216,1.538c1.417,0.914,3.306,0.506,4.219-0.911S125.794,470.616,124.377,469.703z"/>
	</g>
	<rect height="42.236" width="718" style="fill:none;" y="67.764" x="41"/>
	<text style="font-family:'Dosis-SemiBold'; font-size:36px;" transform="matrix(1 0 0 1 189.8354 94.9795)">CHOOSE YOUR OWN AVATAR!</text>
	<g>
		<g>
			<path d="M288.492,762.946v-0.257c-0.349,0.398-0.692,0.724-1.031,0.973&#10;&#9;&#9;&#9;&#9;c-0.338,0.251-0.706,0.441-1.102,0.57c-0.396,0.132-0.827,0.195-1.296,0.195c-0.621,0-1.196-0.131-1.725-0.393&#10;&#9;&#9;&#9;&#9;c-0.528-0.263-0.986-0.639-1.372-1.126c-0.387-0.487-0.68-1.06-0.879-1.719c-0.199-0.659-0.299-1.371-0.299-2.137&#10;&#9;&#9;&#9;&#9;c0-1.621,0.396-2.886,1.188-3.791c0.792-0.904,1.833-1.357,3.125-1.357c0.747,0,1.377,0.129,1.89,0.384&#10;&#9;&#9;&#9;&#9;c0.513,0.257,1.013,0.652,1.501,1.183v-3.827c0-0.532,0.105-0.934,0.318-1.206c0.211-0.273,0.514-0.408,0.907-0.408&#10;&#9;&#9;&#9;&#9;c0.393,0,0.694,0.125,0.907,0.375c0.212,0.251,0.318,0.618,0.318,1.106v11.436c0,0.494-0.113,0.864-0.342,1.111&#10;&#9;&#9;&#9;&#9;c-0.228,0.246-0.522,0.37-0.883,0.37c-0.354,0-0.647-0.128-0.879-0.384C288.607,763.786,288.492,763.421,288.492,762.946z&#10;&#9;&#9;&#9;&#9; M283.392,759.138c0,0.703,0.109,1.301,0.328,1.795c0.219,0.494,0.518,0.866,0.897,1.115c0.38,0.251,0.795,0.377,1.244,0.377&#10;&#9;&#9;&#9;&#9;c0.456,0,0.872-0.119,1.249-0.357c0.377-0.236,0.677-0.602,0.902-1.091c0.225-0.491,0.337-1.105,0.337-1.839&#10;&#9;&#9;&#9;&#9;c0-0.69-0.112-1.284-0.337-1.782c-0.225-0.496-0.528-0.876-0.912-1.14c-0.383-0.262-0.803-0.393-1.258-0.393&#10;&#9;&#9;&#9;&#9;c-0.475,0-0.899,0.135-1.273,0.403c-0.374,0.269-0.663,0.654-0.869,1.158C283.494,757.889,283.392,758.473,283.392,759.138z" style="fill:#4C4C4C;"/>
			<path d="M299.926,759.794h-5.071c0.006,0.588,0.125,1.107,0.356,1.557c0.23,0.45,0.538,0.789,0.921,1.017&#10;&#9;&#9;&#9;&#9;c0.383,0.229,0.806,0.341,1.268,0.341c0.31,0,0.593-0.035,0.85-0.107c0.257-0.074,0.505-0.187,0.746-0.343&#10;&#9;&#9;&#9;&#9;c0.241-0.154,0.462-0.321,0.665-0.499c0.202-0.178,0.464-0.419,0.788-0.723c0.133-0.113,0.323-0.171,0.571-0.171&#10;&#9;&#9;&#9;&#9;c0.266,0,0.48,0.074,0.645,0.22c0.165,0.146,0.248,0.351,0.248,0.617c0,0.234-0.093,0.507-0.275,0.821&#10;&#9;&#9;&#9;&#9;c-0.185,0.313-0.462,0.614-0.832,0.902c-0.372,0.288-0.835,0.526-1.397,0.717c-0.56,0.19-1.204,0.285-1.933,0.285&#10;&#9;&#9;&#9;&#9;c-1.664,0-2.96-0.476-3.884-1.425c-0.924-0.949-1.386-2.238-1.386-3.865c0-0.767,0.113-1.478,0.341-2.132&#10;&#9;&#9;&#9;&#9;c0.229-0.656,0.561-1.218,0.997-1.687c0.437-0.469,0.975-0.827,1.615-1.078c0.639-0.25,1.349-0.374,2.127-0.374&#10;&#9;&#9;&#9;&#9;c1.013,0,1.882,0.212,2.606,0.641c0.726,0.427,1.27,0.98,1.63,1.656c0.36,0.678,0.542,1.369,0.542,2.07&#10;&#9;&#9;&#9;&#9;c0,0.653-0.187,1.075-0.56,1.27C301.13,759.696,300.604,759.794,299.926,759.794z M294.855,758.321h4.702&#10;&#9;&#9;&#9;&#9;c-0.063-0.887-0.303-1.551-0.717-1.99c-0.415-0.44-0.96-0.66-1.638-0.66c-0.646,0-1.177,0.223-1.591,0.669&#10;&#9;&#9;&#9;&#9;C295.195,756.786,294.944,757.447,294.855,758.321z" style="fill:#4C4C4C;"/>
			<path d="M311.741,761.036c0,0.716-0.173,1.329-0.522,1.839c-0.348,0.51-0.862,0.896-1.543,1.159&#10;&#9;&#9;&#9;&#9;c-0.68,0.263-1.508,0.393-2.483,0.393c-0.931,0-1.728-0.143-2.394-0.428c-0.664-0.284-1.156-0.642-1.472-1.067&#10;&#9;&#9;&#9;&#9;c-0.317-0.429-0.475-0.857-0.475-1.288c0-0.285,0.101-0.528,0.304-0.73c0.202-0.202,0.459-0.304,0.77-0.304&#10;&#9;&#9;&#9;&#9;c0.271,0,0.48,0.066,0.626,0.199c0.146,0.133,0.286,0.32,0.418,0.56c0.266,0.464,0.585,0.807,0.956,1.036&#10;&#9;&#9;&#9;&#9;c0.37,0.227,0.875,0.342,1.515,0.342c0.519,0,0.945-0.116,1.277-0.347c0.332-0.232,0.498-0.496,0.498-0.794&#10;&#9;&#9;&#9;&#9;c0-0.456-0.172-0.787-0.518-0.996c-0.345-0.209-0.913-0.409-1.705-0.6c-0.893-0.221-1.619-0.454-2.18-0.698&#10;&#9;&#9;&#9;&#9;c-0.561-0.242-1.008-0.565-1.344-0.963c-0.335-0.399-0.503-0.891-0.503-1.473c0-0.518,0.155-1.01,0.465-1.473&#10;&#9;&#9;&#9;&#9;c0.311-0.461,0.768-0.83,1.374-1.106c0.603-0.276,1.333-0.414,2.188-0.414c0.671,0,1.275,0.069,1.809,0.21&#10;&#9;&#9;&#9;&#9;c0.536,0.138,0.983,0.326,1.34,0.561c0.358,0.233,0.63,0.493,0.816,0.777c0.186,0.285,0.28,0.564,0.28,0.837&#10;&#9;&#9;&#9;&#9;c0,0.297-0.1,0.541-0.298,0.732c-0.199,0.188-0.482,0.285-0.85,0.285c-0.266,0-0.492-0.076-0.679-0.229&#10;&#9;&#9;&#9;&#9;c-0.186-0.151-0.4-0.379-0.641-0.683c-0.196-0.253-0.426-0.456-0.693-0.608c-0.266-0.152-0.627-0.227-1.083-0.227&#10;&#9;&#9;&#9;&#9;c-0.469,0-0.858,0.099-1.168,0.3c-0.31,0.198-0.465,0.446-0.465,0.744c0,0.273,0.114,0.496,0.341,0.67&#10;&#9;&#9;&#9;&#9;c0.228,0.175,0.535,0.319,0.922,0.433c0.386,0.113,0.917,0.252,1.596,0.417c0.803,0.197,1.46,0.432,1.97,0.703&#10;&#9;&#9;&#9;&#9;c0.509,0.271,0.896,0.594,1.16,0.965C311.61,760.14,311.741,760.562,311.741,761.036z" style="fill:#4C4C4C;"/>
			<path d="M314.39,752.68c-0.361,0-0.669-0.111-0.926-0.333c-0.256-0.221-0.385-0.534-0.385-0.94&#10;&#9;&#9;&#9;&#9;c0-0.368,0.131-0.669,0.394-0.907c0.263-0.238,0.569-0.356,0.916-0.356c0.336,0,0.633,0.107,0.893,0.323&#10;&#9;&#9;&#9;&#9;c0.26,0.216,0.39,0.528,0.39,0.94c0,0.399-0.127,0.711-0.381,0.936C315.039,752.567,314.738,752.68,314.39,752.68z&#10;&#9;&#9;&#9;&#9; M315.672,755.357v7.493c0,0.519-0.124,0.913-0.371,1.179c-0.247,0.266-0.56,0.398-0.94,0.398s-0.689-0.136-0.926-0.408&#10;&#9;&#9;&#9;&#9;c-0.238-0.273-0.356-0.662-0.356-1.169v-7.418c0-0.512,0.118-0.898,0.356-1.158c0.237-0.26,0.546-0.39,0.926-0.39&#10;&#9;&#9;&#9;&#9;s0.693,0.13,0.94,0.39C315.549,754.534,315.672,754.896,315.672,755.357z" style="fill:#4C4C4C;"/>
			<path d="M327.031,755.785v7.531c0,0.861-0.093,1.602-0.277,2.224c-0.182,0.619-0.477,1.133-0.883,1.538&#10;&#9;&#9;&#9;&#9;c-0.405,0.404-0.935,0.706-1.59,0.901c-0.655,0.197-1.471,0.295-2.446,0.295c-0.893,0-1.69-0.125-2.393-0.375&#10;&#9;&#9;&#9;&#9;c-0.702-0.251-1.243-0.573-1.624-0.969c-0.379-0.396-0.57-0.803-0.57-1.221c0-0.316,0.108-0.575,0.324-0.773&#10;&#9;&#9;&#9;&#9;c0.215-0.2,0.475-0.3,0.778-0.3c0.38,0,0.712,0.168,0.997,0.503c0.139,0.171,0.283,0.345,0.432,0.519&#10;&#9;&#9;&#9;&#9;c0.149,0.175,0.314,0.323,0.494,0.447c0.181,0.122,0.398,0.214,0.65,0.274c0.253,0.059,0.545,0.09,0.874,0.09&#10;&#9;&#9;&#9;&#9;c0.671,0,1.192-0.093,1.563-0.28c0.371-0.187,0.63-0.448,0.779-0.784c0.149-0.334,0.236-0.693,0.261-1.077&#10;&#9;&#9;&#9;&#9;s0.044-0.999,0.057-1.849c-0.399,0.559-0.859,0.983-1.382,1.274c-0.522,0.291-1.145,0.436-1.866,0.436&#10;&#9;&#9;&#9;&#9;c-0.868,0-1.625-0.222-2.275-0.665c-0.648-0.443-1.147-1.064-1.495-1.861c-0.349-0.799-0.522-1.719-0.522-2.764&#10;&#9;&#9;&#9;&#9;c0-0.778,0.105-1.482,0.317-2.108c0.213-0.628,0.515-1.156,0.907-1.587c0.393-0.431,0.845-0.755,1.358-0.974&#10;&#9;&#9;&#9;&#9;c0.513-0.218,1.076-0.327,1.691-0.327c0.734,0,1.371,0.142,1.909,0.422c0.538,0.283,1.039,0.725,1.5,1.326V755.3&#10;&#9;&#9;&#9;&#9;c0-0.449,0.11-0.797,0.332-1.045c0.222-0.246,0.507-0.37,0.855-0.37c0.5,0,0.832,0.164,0.997,0.489&#10;&#9;&#9;&#9;&#9;C326.948,754.7,327.031,755.171,327.031,755.785z M319.518,759.071c0,1.051,0.229,1.846,0.688,2.384&#10;&#9;&#9;&#9;&#9;c0.459,0.539,1.053,0.808,1.781,0.808c0.43,0,0.837-0.116,1.22-0.347c0.384-0.232,0.695-0.58,0.936-1.045&#10;&#9;&#9;&#9;&#9;c0.24-0.466,0.361-1.03,0.361-1.695c0-1.057-0.232-1.881-0.698-2.469c-0.466-0.589-1.078-0.884-1.838-0.884&#10;&#9;&#9;&#9;&#9;c-0.741,0-1.334,0.282-1.78,0.846C319.741,757.232,319.518,758.033,319.518,759.071z" style="fill:#4C4C4C;"/>
			<path d="M331.152,755.319v0.313c0.455-0.602,0.954-1.043,1.496-1.325c0.542-0.281,1.163-0.423,1.866-0.423&#10;&#9;&#9;&#9;&#9;c0.684,0,1.295,0.149,1.833,0.447c0.538,0.298,0.941,0.719,1.206,1.262c0.172,0.317,0.282,0.66,0.332,1.026&#10;&#9;&#9;&#9;&#9;c0.051,0.368,0.077,0.836,0.077,1.406v4.824c0,0.519-0.119,0.913-0.357,1.179c-0.237,0.266-0.546,0.398-0.926,0.398&#10;&#9;&#9;&#9;&#9;c-0.387,0-0.7-0.136-0.94-0.408c-0.241-0.273-0.361-0.662-0.361-1.169v-4.321c0-0.854-0.119-1.509-0.356-1.961&#10;&#9;&#9;&#9;&#9;c-0.238-0.452-0.71-0.68-1.42-0.68c-0.461,0-0.883,0.138-1.263,0.413c-0.38,0.276-0.659,0.655-0.836,1.136&#10;&#9;&#9;&#9;&#9;c-0.126,0.387-0.19,1.107-0.19,2.165v3.248c0,0.525-0.123,0.921-0.365,1.184c-0.244,0.263-0.559,0.393-0.945,0.393&#10;&#9;&#9;&#9;&#9;c-0.375,0-0.681-0.136-0.922-0.408c-0.24-0.273-0.361-0.662-0.361-1.169v-7.493c0-0.494,0.107-0.863,0.323-1.107&#10;&#9;&#9;&#9;&#9;c0.215-0.243,0.51-0.365,0.883-0.365c0.229,0,0.435,0.054,0.619,0.162c0.183,0.108,0.331,0.27,0.441,0.483&#10;&#9;&#9;&#9;&#9;C331.097,754.746,331.152,755.01,331.152,755.319z" style="fill:#4C4C4C;"/>
			<path d="M346.926,759.794h-5.071c0.007,0.588,0.125,1.107,0.356,1.557c0.231,0.45,0.538,0.789,0.921,1.017&#10;&#9;&#9;&#9;&#9;c0.382,0.229,0.805,0.341,1.267,0.341c0.31,0,0.594-0.035,0.851-0.107c0.255-0.074,0.504-0.187,0.746-0.343&#10;&#9;&#9;&#9;&#9;c0.24-0.154,0.461-0.321,0.665-0.499c0.202-0.178,0.464-0.419,0.788-0.723c0.133-0.113,0.323-0.171,0.57-0.171&#10;&#9;&#9;&#9;&#9;c0.266,0,0.481,0.074,0.646,0.22c0.165,0.146,0.247,0.351,0.247,0.617c0,0.234-0.091,0.507-0.275,0.821&#10;&#9;&#9;&#9;&#9;c-0.184,0.313-0.461,0.614-0.832,0.902c-0.371,0.288-0.835,0.526-1.396,0.717c-0.56,0.19-1.205,0.285-1.933,0.285&#10;&#9;&#9;&#9;&#9;c-1.665,0-2.96-0.476-3.885-1.425c-0.923-0.949-1.386-2.238-1.386-3.865c0-0.767,0.114-1.478,0.342-2.132&#10;&#9;&#9;&#9;&#9;c0.228-0.656,0.561-1.218,0.998-1.687c0.436-0.469,0.975-0.827,1.614-1.078c0.639-0.25,1.349-0.374,2.128-0.374&#10;&#9;&#9;&#9;&#9;c1.013,0,1.881,0.212,2.606,0.641c0.726,0.427,1.269,0.98,1.63,1.656c0.36,0.678,0.542,1.369,0.542,2.07&#10;&#9;&#9;&#9;&#9;c0,0.653-0.186,1.075-0.561,1.27C348.13,759.696,347.605,759.794,346.926,759.794z M341.855,758.321h4.701&#10;&#9;&#9;&#9;&#9;c-0.063-0.887-0.302-1.551-0.717-1.99c-0.415-0.44-0.961-0.66-1.638-0.66c-0.646,0-1.177,0.223-1.592,0.669&#10;&#9;&#9;&#9;&#9;C342.194,756.786,341.944,757.447,341.855,758.321z" style="fill:#4C4C4C;"/>
			<path d="M357.496,762.946v-0.257c-0.348,0.398-0.691,0.724-1.03,0.973&#10;&#9;&#9;&#9;&#9;c-0.339,0.251-0.706,0.441-1.102,0.57c-0.395,0.132-0.828,0.195-1.296,0.195c-0.622,0-1.196-0.131-1.724-0.393&#10;&#9;&#9;&#9;&#9;c-0.529-0.263-0.986-0.639-1.373-1.126c-0.387-0.487-0.679-1.06-0.878-1.719c-0.2-0.659-0.299-1.371-0.299-2.137&#10;&#9;&#9;&#9;&#9;c0-1.621,0.395-2.886,1.187-3.791c0.792-0.904,1.833-1.357,3.125-1.357c0.747,0,1.378,0.129,1.89,0.384&#10;&#9;&#9;&#9;&#9;c0.513,0.257,1.013,0.652,1.5,1.183v-3.827c0-0.532,0.106-0.934,0.319-1.206c0.211-0.273,0.515-0.408,0.907-0.408&#10;&#9;&#9;&#9;&#9;c0.392,0,0.694,0.125,0.907,0.375c0.212,0.251,0.318,0.618,0.318,1.106v11.436c0,0.494-0.114,0.864-0.342,1.111&#10;&#9;&#9;&#9;&#9;c-0.228,0.246-0.522,0.37-0.883,0.37c-0.355,0-0.647-0.128-0.879-0.384C357.612,763.786,357.496,763.421,357.496,762.946z&#10;&#9;&#9;&#9;&#9; M352.396,759.138c0,0.703,0.108,1.301,0.327,1.795c0.218,0.494,0.518,0.866,0.898,1.115c0.379,0.251,0.794,0.377,1.243,0.377&#10;&#9;&#9;&#9;&#9;c0.456,0,0.873-0.119,1.249-0.357c0.377-0.236,0.678-0.602,0.902-1.091c0.225-0.491,0.337-1.105,0.337-1.839&#10;&#9;&#9;&#9;&#9;c0-0.69-0.112-1.284-0.337-1.782c-0.224-0.496-0.528-0.876-0.912-1.14c-0.384-0.262-0.803-0.393-1.259-0.393&#10;&#9;&#9;&#9;&#9;c-0.474,0-0.899,0.135-1.272,0.403c-0.373,0.269-0.663,0.654-0.869,1.158C352.499,757.889,352.396,758.473,352.396,759.138z" style="fill:#4C4C4C;"/>
			<path d="M368.094,751.511v3.96c0.487-0.506,0.984-0.895,1.491-1.163c0.506-0.269,1.134-0.403,1.881-0.403&#10;&#9;&#9;&#9;&#9;c0.861,0,1.616,0.204,2.266,0.611c0.648,0.41,1.151,1.002,1.51,1.777c0.357,0.774,0.537,1.695,0.537,2.76&#10;&#9;&#9;&#9;&#9;c0,0.785-0.1,1.504-0.299,2.16c-0.2,0.655-0.49,1.224-0.869,1.704c-0.38,0.481-0.841,0.854-1.382,1.117&#10;&#9;&#9;&#9;&#9;c-0.542,0.263-1.139,0.393-1.79,0.393c-0.399,0-0.775-0.047-1.125-0.143c-0.352-0.095-0.651-0.219-0.898-0.375&#10;&#9;&#9;&#9;&#9;c-0.246-0.154-0.457-0.314-0.631-0.479c-0.174-0.164-0.404-0.412-0.689-0.741v0.257c0,0.487-0.117,0.856-0.352,1.107&#10;&#9;&#9;&#9;&#9;c-0.233,0.25-0.531,0.374-0.892,0.374c-0.367,0-0.66-0.124-0.879-0.374c-0.219-0.251-0.328-0.62-0.328-1.107v-11.322&#10;&#9;&#9;&#9;&#9;c0-0.525,0.106-0.923,0.317-1.191c0.212-0.269,0.509-0.403,0.889-0.403c0.399,0,0.706,0.128,0.921,0.384&#10;&#9;&#9;&#9;&#9;C367.986,750.671,368.094,751.035,368.094,751.511z M368.218,759.214c0,1.032,0.236,1.824,0.708,2.378&#10;&#9;&#9;&#9;&#9;c0.472,0.555,1.091,0.833,1.857,0.833c0.652,0,1.214-0.283,1.686-0.851c0.472-0.567,0.708-1.379,0.708-2.436&#10;&#9;&#9;&#9;&#9;c0-0.684-0.097-1.273-0.294-1.767c-0.197-0.494-0.475-0.876-0.835-1.145c-0.361-0.268-0.783-0.403-1.264-0.403&#10;&#9;&#9;&#9;&#9;c-0.494,0-0.935,0.135-1.32,0.403c-0.386,0.269-0.69,0.658-0.912,1.168C368.329,757.903,368.218,758.511,368.218,759.214z" style="fill:#4C4C4C;"/>
			<path d="M379.14,764.751l0.237-0.58l-3.191-8.035c-0.196-0.461-0.295-0.798-0.295-1.007&#10;&#9;&#9;&#9;&#9;c0-0.222,0.058-0.427,0.171-0.616c0.114-0.19,0.271-0.343,0.47-0.456c0.2-0.115,0.407-0.172,0.622-0.172&#10;&#9;&#9;&#9;&#9;c0.373,0,0.655,0.119,0.846,0.356c0.19,0.237,0.357,0.577,0.503,1.021l2.194,6.383l2.08-5.936c0.164-0.48,0.313-0.857,0.446-1.13&#10;&#9;&#9;&#9;&#9;c0.133-0.272,0.273-0.456,0.422-0.55c0.149-0.096,0.359-0.144,0.632-0.144c0.197,0,0.385,0.052,0.565,0.157&#10;&#9;&#9;&#9;&#9;c0.18,0.104,0.319,0.245,0.418,0.423c0.098,0.177,0.148,0.363,0.148,0.56c-0.026,0.12-0.066,0.291-0.124,0.514&#10;&#9;&#9;&#9;&#9;c-0.058,0.221-0.126,0.447-0.208,0.674l-3.381,8.853c-0.292,0.778-0.577,1.389-0.855,1.832c-0.279,0.443-0.647,0.785-1.106,1.021&#10;&#9;&#9;&#9;&#9;c-0.46,0.238-1.078,0.356-1.857,0.356c-0.759,0-1.33-0.082-1.708-0.246c-0.381-0.166-0.57-0.467-0.57-0.903&#10;&#9;&#9;&#9;&#9;c0-0.297,0.089-0.527,0.271-0.689c0.18-0.161,0.448-0.243,0.801-0.243c0.14,0,0.276,0.02,0.409,0.059&#10;&#9;&#9;&#9;&#9;c0.164,0.037,0.307,0.057,0.427,0.057c0.297,0,0.532-0.044,0.704-0.134c0.17-0.088,0.324-0.241,0.461-0.461&#10;&#9;&#9;&#9;&#9;C378.806,765.497,378.963,765.175,379.14,764.751z" style="fill:#4C4C4C;"/>
		</g>
		<g>
			<path d="M416.703,754.109h0.618v-0.778c0-0.814,0.1-1.457,0.307-1.938&#10;&#9;&#9;&#9;&#9;c0.204-0.479,0.556-0.826,1.047-1.045c0.49-0.217,1.163-0.326,2.017-0.326c1.52,0,2.272,0.367,2.272,1.114&#10;&#9;&#9;&#9;&#9;c0,0.238-0.079,0.444-0.24,0.615c-0.154,0.169-0.343,0.256-0.558,0.256c-0.1,0-0.278-0.019-0.527-0.06&#10;&#9;&#9;&#9;&#9;c-0.237-0.033-0.452-0.056-0.623-0.056c-0.468,0-0.767,0.141-0.905,0.415c-0.127,0.275-0.195,0.669-0.195,1.185v0.617h0.633&#10;&#9;&#9;&#9;&#9;c0.991,0,1.481,0.297,1.481,0.896c0,0.419-0.127,0.69-0.393,0.805c-0.262,0.114-0.624,0.171-1.089,0.171h-0.633v6.871&#10;&#9;&#9;&#9;&#9;c0,0.511-0.12,0.9-0.369,1.168c-0.241,0.273-0.554,0.406-0.942,0.406c-0.367,0-0.671-0.134-0.918-0.406&#10;&#9;&#9;&#9;&#9;c-0.244-0.268-0.364-0.657-0.364-1.168v-6.871h-0.714c-0.389,0-0.683-0.084-0.894-0.262c-0.209-0.171-0.314-0.399-0.314-0.678&#10;&#9;&#9;&#9;&#9;C415.399,754.417,415.834,754.109,416.703,754.109" style="fill:#4C4C4C;"/>
			<path d="M425.192,760.684v2.168c0,0.523-0.133,0.919-0.374,1.18c-0.247,0.266-0.559,0.395-0.938,0.395&#10;&#9;&#9;&#9;&#9;c-0.382,0-0.688-0.131-0.927-0.4c-0.236-0.264-0.36-0.656-0.36-1.174v-7.223c0-1.166,0.42-1.749,1.261-1.749&#10;&#9;&#9;&#9;&#9;c0.434,0,0.743,0.135,0.934,0.408c0.189,0.273,0.295,0.674,0.317,1.208c0.308-0.534,0.624-0.935,0.948-1.208&#10;&#9;&#9;&#9;&#9;c0.332-0.273,0.763-0.408,1.31-0.408c0.549,0,1.072,0.135,1.585,0.408c0.516,0.273,0.771,0.637,0.771,1.085&#10;&#9;&#9;&#9;&#9;c0,0.315-0.11,0.58-0.326,0.781c-0.22,0.209-0.454,0.311-0.706,0.311c-0.1,0-0.331-0.063-0.692-0.18&#10;&#9;&#9;&#9;&#9;c-0.365-0.113-0.688-0.173-0.963-0.173c-0.38,0-0.692,0.102-0.932,0.298c-0.242,0.205-0.431,0.497-0.564,0.887&#10;&#9;&#9;&#9;&#9;c-0.129,0.395-0.219,0.865-0.273,1.404C425.215,759.244,425.192,759.905,425.192,760.684" style="fill:#4C4C4C;"/>
			<path d="M437.113,759.791h-5.074c0.009,0.588,0.124,1.11,0.354,1.559c0.235,0.446,0.54,0.786,0.925,1.017&#10;&#9;&#9;&#9;&#9;c0.385,0.228,0.804,0.34,1.268,0.34c0.311,0,0.593-0.033,0.85-0.111c0.254-0.069,0.505-0.185,0.745-0.341&#10;&#9;&#9;&#9;&#9;c0.242-0.152,0.46-0.318,0.664-0.5c0.202-0.175,0.467-0.416,0.79-0.719c0.135-0.113,0.324-0.174,0.568-0.174&#10;&#9;&#9;&#9;&#9;c0.269,0,0.481,0.074,0.649,0.222c0.166,0.147,0.243,0.351,0.243,0.617c0,0.235-0.089,0.508-0.268,0.819&#10;&#9;&#9;&#9;&#9;c-0.188,0.317-0.463,0.616-0.836,0.906c-0.374,0.285-0.839,0.527-1.398,0.714c-0.559,0.19-1.206,0.286-1.932,0.286&#10;&#9;&#9;&#9;&#9;c-1.671,0-2.964-0.473-3.887-1.422c-0.924-0.952-1.392-2.242-1.392-3.868c0-0.767,0.117-1.479,0.348-2.135&#10;&#9;&#9;&#9;&#9;c0.225-0.658,0.558-1.216,0.999-1.688c0.436-0.471,0.97-0.828,1.612-1.078c0.638-0.249,1.347-0.374,2.128-0.374&#10;&#9;&#9;&#9;&#9;c1.011,0,1.881,0.214,2.606,0.646c0.724,0.423,1.273,0.977,1.629,1.654c0.361,0.681,0.542,1.368,0.542,2.074&#10;&#9;&#9;&#9;&#9;c0,0.648-0.188,1.07-0.561,1.266C438.315,759.694,437.791,759.791,437.113,759.791 M432.039,758.317h4.701&#10;&#9;&#9;&#9;&#9;c-0.063-0.885-0.298-1.55-0.714-1.986c-0.418-0.442-0.959-0.66-1.641-0.66c-0.645,0-1.177,0.22-1.592,0.669&#10;&#9;&#9;&#9;&#9;C432.38,756.785,432.126,757.443,432.039,758.317" style="fill:#4C4C4C;"/>
			<path d="M447.9,759.791h-5.073c0.006,0.588,0.125,1.11,0.354,1.559c0.231,0.446,0.539,0.786,0.921,1.017&#10;&#9;&#9;&#9;&#9;c0.383,0.228,0.806,0.34,1.271,0.34c0.308,0,0.593-0.033,0.845-0.111c0.259-0.069,0.506-0.185,0.75-0.341&#10;&#9;&#9;&#9;&#9;c0.242-0.152,0.46-0.318,0.664-0.5c0.199-0.175,0.464-0.416,0.788-0.719c0.135-0.113,0.326-0.174,0.568-0.174&#10;&#9;&#9;&#9;&#9;c0.268,0,0.483,0.074,0.65,0.222c0.165,0.147,0.24,0.351,0.24,0.617c0,0.235-0.087,0.508-0.273,0.819&#10;&#9;&#9;&#9;&#9;c-0.177,0.317-0.455,0.616-0.83,0.906c-0.37,0.285-0.84,0.527-1.395,0.714c-0.558,0.19-1.208,0.286-1.935,0.286&#10;&#9;&#9;&#9;&#9;c-1.667,0-2.959-0.473-3.887-1.422c-0.924-0.952-1.389-2.242-1.389-3.868c0-0.767,0.116-1.479,0.348-2.135&#10;&#9;&#9;&#9;&#9;c0.227-0.658,0.559-1.216,0.996-1.688c0.436-0.471,0.973-0.828,1.614-1.078c0.638-0.249,1.351-0.374,2.129-0.374&#10;&#9;&#9;&#9;&#9;c1.009,0,1.878,0.214,2.613,0.646c0.72,0.423,1.266,0.977,1.621,1.654c0.359,0.681,0.545,1.368,0.545,2.074&#10;&#9;&#9;&#9;&#9;c0,0.648-0.191,1.07-0.561,1.266C449.1,759.694,448.576,759.791,447.9,759.791 M442.827,758.317h4.701&#10;&#9;&#9;&#9;&#9;c-0.063-0.885-0.304-1.55-0.715-1.986c-0.421-0.442-0.962-0.66-1.643-0.66c-0.645,0-1.176,0.22-1.593,0.669&#10;&#9;&#9;&#9;&#9;C443.165,756.785,442.911,757.443,442.827,758.317" style="fill:#4C4C4C;"/>
			<path d="M453.58,755.339v0.311c0.486-0.601,0.994-1.042,1.524-1.324c0.519-0.284,1.118-0.427,1.782-0.427&#10;&#9;&#9;&#9;&#9;c0.795,0,1.535,0.208,2.207,0.617c0.671,0.414,1.198,1.016,1.589,1.807c0.39,0.795,0.586,1.729,0.586,2.813&#10;&#9;&#9;&#9;&#9;c0,0.796-0.112,1.531-0.336,2.201c-0.224,0.668-0.537,1.227-0.929,1.68c-0.393,0.45-0.855,0.802-1.39,1.046&#10;&#9;&#9;&#9;&#9;c-0.542,0.241-1.111,0.363-1.728,0.363c-0.738,0-1.364-0.148-1.865-0.447c-0.503-0.292-0.982-0.733-1.441-1.306v3.893&#10;&#9;&#9;&#9;&#9;c0,1.136-0.416,1.71-1.244,1.71c-0.49,0-0.809-0.146-0.972-0.44c-0.151-0.299-0.233-0.724-0.233-1.291v-11.193&#10;&#9;&#9;&#9;&#9;c0-0.495,0.106-0.859,0.32-1.107c0.215-0.239,0.512-0.364,0.885-0.364c0.369,0,0.666,0.125,0.896,0.374&#10;&#9;&#9;&#9;&#9;C453.467,754.508,453.58,754.864,453.58,755.339 M458.664,759.107c0-0.685-0.107-1.273-0.315-1.763&#10;&#9;&#9;&#9;&#9;c-0.209-0.492-0.499-0.867-0.866-1.128c-0.367-0.263-0.782-0.396-1.232-0.396c-0.714,0-1.318,0.284-1.809,0.844&#10;&#9;&#9;&#9;&#9;c-0.492,0.566-0.739,1.396-0.739,2.493c0,1.026,0.244,1.833,0.735,2.406c0.487,0.573,1.086,0.858,1.813,0.858&#10;&#9;&#9;&#9;&#9;c0.429,0,0.83-0.126,1.197-0.372c0.371-0.253,0.665-0.627,0.884-1.127C458.553,760.42,458.664,759.815,458.664,759.107" style="fill:#4C4C4C;"/>
			<path d="M463.88,752.673c-0.362,0-0.669-0.114-0.923-0.335c-0.26-0.223-0.388-0.532-0.388-0.937&#10;&#9;&#9;&#9;&#9;c0-0.368,0.131-0.67,0.396-0.91c0.262-0.234,0.566-0.355,0.914-0.355c0.34,0,0.636,0.107,0.894,0.319&#10;&#9;&#9;&#9;&#9;c0.26,0.219,0.391,0.534,0.391,0.946c0,0.399-0.127,0.711-0.378,0.936C464.532,752.559,464.231,752.673,463.88,752.673&#10;&#9;&#9;&#9;&#9; M465.164,755.352v7.502c0,0.516-0.124,0.908-0.37,1.172c-0.25,0.269-0.561,0.4-0.941,0.4c-0.381,0-0.685-0.134-0.928-0.406&#10;&#9;&#9;&#9;&#9;c-0.233-0.276-0.355-0.665-0.355-1.166v-7.428c0-0.51,0.122-0.895,0.355-1.154c0.243-0.265,0.547-0.392,0.928-0.392&#10;&#9;&#9;&#9;&#9;c0.381,0,0.691,0.127,0.941,0.392C465.04,754.531,465.164,754.894,465.164,755.352" style="fill:#4C4C4C;"/>
			<path d="M473.523,763.242l-2.284-3.766l-1.408,1.328v2.065c0,0.499-0.133,0.882-0.397,1.149&#10;&#9;&#9;&#9;&#9;c-0.257,0.273-0.566,0.406-0.906,0.406c-0.398,0-0.715-0.131-0.94-0.4c-0.227-0.264-0.344-0.656-0.344-1.174v-11.063&#10;&#9;&#9;&#9;&#9;c0-0.573,0.114-1.011,0.331-1.314c0.223-0.305,0.545-0.452,0.953-0.452c0.399,0,0.713,0.137,0.949,0.411&#10;&#9;&#9;&#9;&#9;c0.234,0.271,0.354,0.674,0.354,1.202v6.293l2.916-3.063c0.362-0.376,0.633-0.641,0.827-0.778&#10;&#9;&#9;&#9;&#9;c0.189-0.139,0.419-0.208,0.689-0.208c0.326,0,0.594,0.104,0.815,0.309c0.211,0.206,0.32,0.466,0.32,0.773&#10;&#9;&#9;&#9;&#9;c0,0.379-0.354,0.889-1.055,1.522l-1.377,1.263l2.659,4.183c0.193,0.314,0.339,0.544,0.424,0.706&#10;&#9;&#9;&#9;&#9;c0.084,0.159,0.13,0.319,0.13,0.462c0,0.413-0.114,0.734-0.341,0.976c-0.225,0.236-0.523,0.354-0.886,0.354&#10;&#9;&#9;&#9;&#9;c-0.316,0-0.564-0.081-0.733-0.256C474.051,763.997,473.813,763.687,473.523,763.242" style="fill:#4C4C4C;"/>
			<path d="M479.159,764.426c-0.392,0-0.728-0.126-1.014-0.381c-0.284-0.249-0.429-0.605-0.429-1.064&#10;&#9;&#9;&#9;&#9;c0-0.386,0.138-0.719,0.41-0.995c0.274-0.279,0.607-0.419,1.008-0.419c0.397,0,0.735,0.14,1.022,0.412&#10;&#9;&#9;&#9;&#9;c0.279,0.275,0.422,0.612,0.422,1.002c0,0.452-0.143,0.808-0.422,1.06C479.87,764.3,479.538,764.426,479.159,764.426" style="fill:#4C4C4C;"/>
			<path d="M492.057,761.216c0,0.32-0.097,0.668-0.291,1.034c-0.191,0.37-0.488,0.718-0.886,1.05&#10;&#9;&#9;&#9;&#9;c-0.395,0.332-0.892,0.602-1.495,0.804c-0.601,0.202-1.28,0.307-2.03,0.307c-1.606,0-2.858-0.47-3.758-1.401&#10;&#9;&#9;&#9;&#9;c-0.896-0.936-1.346-2.19-1.346-3.76c0-1.067,0.204-2.006,0.619-2.824c0.407-0.815,1.004-1.447,1.781-1.894&#10;&#9;&#9;&#9;&#9;c0.779-0.448,1.716-0.67,2.794-0.67c0.674,0,1.288,0.098,1.852,0.295c0.561,0.195,1.032,0.451,1.425,0.759&#10;&#9;&#9;&#9;&#9;c0.387,0.315,0.685,0.644,0.89,0.992c0.207,0.352,0.308,0.681,0.308,0.987c0,0.308-0.113,0.571-0.343,0.787&#10;&#9;&#9;&#9;&#9;c-0.235,0.215-0.516,0.324-0.839,0.324c-0.219,0-0.398-0.057-0.541-0.166c-0.144-0.112-0.305-0.29-0.479-0.542&#10;&#9;&#9;&#9;&#9;c-0.317-0.479-0.646-0.842-0.996-1.079c-0.343-0.243-0.78-0.362-1.314-0.362c-0.762,0-1.384,0.298-1.854,0.898&#10;&#9;&#9;&#9;&#9;c-0.468,0.596-0.703,1.42-0.703,2.454c0,0.488,0.063,0.939,0.183,1.348c0.117,0.407,0.291,0.756,0.52,1.044&#10;&#9;&#9;&#9;&#9;c0.23,0.287,0.504,0.505,0.826,0.654c0.324,0.153,0.681,0.226,1.064,0.226c0.521,0,0.967-0.12,1.337-0.36&#10;&#9;&#9;&#9;&#9;c0.376-0.241,0.702-0.607,0.986-1.102c0.158-0.291,0.327-0.518,0.509-0.684c0.183-0.163,0.409-0.249,0.676-0.249&#10;&#9;&#9;&#9;&#9;c0.316,0,0.58,0.123,0.786,0.362C491.951,760.687,492.057,760.945,492.057,761.216" style="fill:#4C4C4C;"/>
			<path d="M503.248,759.155c0,0.77-0.122,1.484-0.355,2.139c-0.247,0.652-0.592,1.213-1.05,1.679&#10;&#9;&#9;&#9;&#9;c-0.455,0.469-1.002,0.828-1.632,1.08c-0.64,0.247-1.35,0.375-2.139,0.375c-0.785,0-1.493-0.128-2.121-0.383&#10;&#9;&#9;&#9;&#9;c-0.623-0.249-1.171-0.614-1.626-1.082c-0.461-0.477-0.809-1.034-1.052-1.677c-0.229-0.643-0.351-1.354-0.351-2.131&#10;&#9;&#9;&#9;&#9;c0-0.786,0.124-1.506,0.358-2.158c0.242-0.654,0.589-1.212,1.039-1.673c0.451-0.462,0.993-0.817,1.631-1.07&#10;&#9;&#9;&#9;&#9;c0.643-0.249,1.35-0.374,2.121-0.374c0.784,0,1.498,0.125,2.139,0.382c0.638,0.251,1.183,0.614,1.644,1.079&#10;&#9;&#9;&#9;&#9;c0.458,0.475,0.803,1.029,1.04,1.672C503.128,757.664,503.248,758.373,503.248,759.155 M500.644,759.155&#10;&#9;&#9;&#9;&#9;c0-1.059-0.234-1.881-0.698-2.469c-0.463-0.596-1.09-0.888-1.874-0.888c-0.508,0-0.955,0.132-1.343,0.394&#10;&#9;&#9;&#9;&#9;c-0.387,0.262-0.681,0.649-0.89,1.164c-0.209,0.514-0.315,1.113-0.315,1.799c0,0.679,0.103,1.268,0.31,1.773&#10;&#9;&#9;&#9;&#9;c0.208,0.511,0.502,0.897,0.886,1.166c0.386,0.267,0.835,0.404,1.353,0.404c0.784,0,1.411-0.296,1.874-0.892&#10;&#9;&#9;&#9;&#9;C500.41,761.017,500.644,760.196,500.644,759.155" style="fill:#4C4C4C;"/>
			<path d="M513.14,759.346v3.446c0,0.547-0.12,0.951-0.369,1.227c-0.25,0.273-0.571,0.408-0.978,0.408&#10;&#9;&#9;&#9;&#9;c-0.393,0-0.714-0.136-0.951-0.408c-0.247-0.276-0.372-0.681-0.372-1.227v-4.131c0-0.653-0.02-1.162-0.063-1.524&#10;&#9;&#9;&#9;&#9;c-0.046-0.353-0.168-0.655-0.362-0.883c-0.196-0.235-0.509-0.352-0.931-0.352c-0.851,0-1.407,0.29-1.677,0.881&#10;&#9;&#9;&#9;&#9;c-0.268,0.576-0.406,1.413-0.406,2.507v3.502c0,0.538-0.122,0.946-0.361,1.224c-0.249,0.273-0.567,0.412-0.965,0.412&#10;&#9;&#9;&#9;&#9;c-0.396,0-0.717-0.139-0.967-0.412c-0.252-0.277-0.376-0.685-0.376-1.224v-7.419c0-0.489,0.111-0.86,0.335-1.111&#10;&#9;&#9;&#9;&#9;c0.229-0.257,0.526-0.382,0.89-0.382c0.356,0,0.651,0.123,0.892,0.355c0.236,0.238,0.354,0.566,0.354,0.984v0.245&#10;&#9;&#9;&#9;&#9;c0.453-0.535,0.935-0.932,1.444-1.181c0.517-0.26,1.082-0.386,1.713-0.386c0.651,0,1.211,0.131,1.678,0.39&#10;&#9;&#9;&#9;&#9;c0.47,0.261,0.853,0.655,1.16,1.177c0.439-0.528,0.909-0.923,1.41-1.181c0.5-0.257,1.053-0.386,1.662-0.386&#10;&#9;&#9;&#9;&#9;c0.706,0,1.321,0.143,1.834,0.419c0.51,0.278,0.893,0.68,1.148,1.195c0.221,0.473,0.33,1.21,0.33,2.217v5.063&#10;&#9;&#9;&#9;&#9;c0,0.547-0.122,0.951-0.367,1.227c-0.246,0.273-0.575,0.408-0.979,0.408c-0.395,0-0.714-0.139-0.965-0.412&#10;&#9;&#9;&#9;&#9;c-0.25-0.277-0.376-0.685-0.376-1.224v-4.361c0-0.559-0.023-1.003-0.069-1.338c-0.047-0.337-0.177-0.62-0.383-0.847&#10;&#9;&#9;&#9;&#9;c-0.212-0.228-0.53-0.344-0.953-0.344c-0.342,0-0.666,0.107-0.974,0.308c-0.307,0.198-0.547,0.477-0.721,0.813&#10;&#9;&#9;&#9;&#9;C513.238,757.461,513.14,758.235,513.14,759.346" style="fill:#4C4C4C;"/>
		</g>
		<g>
			<path d="M392.435,758.527c-0.002-0.005-0.002-0.01-0.002-0.018&#10;&#9;&#9;&#9;&#9;C392.433,758.518,392.433,758.523,392.435,758.527z" style="fill:#4C4C4C;"/>
			<path d="M392.566,759.357c0.002,0,0.002,0,0.003,0c-0.05-0.236-0.088-0.471-0.119-0.702&#10;&#9;&#9;&#9;&#9;C392.48,758.888,392.519,759.123,392.566,759.357z" style="fill:#4C4C4C;"/>
			<path d="M393.424,761.763c-0.006-0.01-0.011-0.022-0.017-0.033&#10;&#9;&#9;&#9;&#9;C393.413,761.741,393.418,761.753,393.424,761.763z" style="fill:#4C4C4C;"/>
			<path d="M393.342,761.603c-0.022-0.044-0.044-0.09-0.065-0.134&#10;&#9;&#9;&#9;&#9;C393.298,761.516,393.32,761.559,393.342,761.603z" style="fill:#4C4C4C;"/>
			<path d="M392.807,760.283c0.127,0.4,0.28,0.788,0.457,1.158c-0.18-0.378-0.33-0.767-0.454-1.158&#10;&#9;&#9;&#9;&#9;C392.809,760.283,392.808,760.283,392.807,760.283z" style="fill:#4C4C4C;"/>
			<path d="M402.473,748.591c0.501,0,0.871,0.04,1.295,0.111l0.12-0.763c0,0-1.171-0.36-2.71-0.234&#10;&#9;&#9;&#9;&#9;l-0.121-0.415c0.478-0.101,0.838-0.526,0.838-1.034c0-0.582-0.474-1.054-1.057-1.054s-1.056,0.472-1.056,1.054&#10;&#9;&#9;&#9;&#9;c0,0.508,0.358,0.934,0.836,1.034l0.134,0.463c-1.634,0.225-2.935,0.862-2.935,0.862l0.23,0.705&#10;&#9;&#9;&#9;&#9;c0.989-0.329,1.846-0.529,2.624-0.613C401.432,748.626,402.005,748.591,402.473,748.591z" style="fill:#4C4C4C;"/>
			<path d="M393.405,752.449l0.006-0.008c0.039-0.05,0.076-0.097,0.113-0.143l-0.313-0.226l-0.488-0.356&#10;&#9;&#9;&#9;&#9;c-0.027,0.038-0.795,0.744-1.401,2.048c-0.025-0.041-0.056-0.081-0.09-0.119c-0.182-0.198-0.436-0.3-0.758-0.294&#10;&#9;&#9;&#9;&#9;c-0.004,0-0.009,0-0.015,0c-0.2,0-0.337-0.066-0.427-0.147c0.089-0.113,0.143-0.256,0.143-0.413c0-0.368-0.3-0.669-0.669-0.669&#10;&#9;&#9;&#9;&#9;c-0.369,0-0.669,0.301-0.669,0.669c0,0.37,0.3,0.669,0.669,0.669c0.058,0,0.113-0.01,0.167-0.021&#10;&#9;&#9;&#9;&#9;c0.164,0.183,0.425,0.342,0.808,0.334c0.197-0.002,0.341,0.049,0.438,0.155c0.111,0.121,0.148,0.296,0.16,0.428&#10;&#9;&#9;&#9;&#9;c-0.001,0.002-0.001,0.005-0.003,0.005c-0.435,1.19-0.311,2.67-0.311,2.67l1.057,0.042c0.022-0.539,0.099-1.482,0.372-2.23&#10;&#9;&#9;&#9;&#9;C392.719,753.394,393.378,752.487,393.405,752.449z" style="fill:#4C4C4C;"/>
			<path d="M411.672,749.475c-0.368,0-0.669,0.299-0.669,0.669c0,0.058,0.009,0.112,0.023,0.165&#10;&#9;&#9;&#9;&#9;c-0.184,0.166-0.343,0.428-0.337,0.81c0.003,0.197-0.048,0.34-0.154,0.437c-0.085,0.075-0.191,0.115-0.296,0.141&#10;&#9;&#9;&#9;&#9;c-0.787-1.103-1.756-1.775-1.756-1.775l-0.759,0.813c0.573,0.521,1.159,1.175,1.729,1.99c0.394,0.564,0.799,1.29,1.136,2.015&#10;&#9;&#9;&#9;&#9;l1.024-0.486c0,0-0.468-1.155-1.126-2.191c0.114-0.04,0.229-0.102,0.331-0.192c0.2-0.181,0.299-0.437,0.293-0.758&#10;&#9;&#9;&#9;&#9;c-0.002-0.208,0.067-0.349,0.149-0.441c0.114,0.087,0.257,0.143,0.412,0.143c0.371,0,0.67-0.3,0.67-0.669&#10;&#9;&#9;&#9;&#9;C412.342,749.773,412.043,749.475,411.672,749.475z" style="fill:#4C4C4C;"/>
			<path d="M409.015,758.677c-1.409,0.687-3.728,1.594-6.781,2.02c-1.198,0.166-2.359,0.227-3.428,0.227&#10;&#9;&#9;&#9;&#9;c-1.391,0-2.62-0.104-3.563-0.223c-1.076-0.136-1.917-0.302-2.432-0.418c0.124,0.392,0.273,0.78,0.454,1.158&#10;&#9;&#9;&#9;&#9;c0.003,0.01,0.008,0.02,0.013,0.027c0.021,0.044,0.043,0.09,0.065,0.134c0.021,0.044,0.043,0.087,0.065,0.127&#10;&#9;&#9;&#9;&#9;c0.006,0.012,0.011,0.023,0.017,0.033c0.303,0.57,0.667,1.095,1.081,1.549c1.44,1.575,2.907,1.824,2.921,1.826l0.023,0.003&#10;&#9;&#9;&#9;&#9;l0.022,0.008c0.013,0.005,1.314,0.425,3.292,0.425c1.945,0,3.854-0.393,5.674-1.167c1.348-0.689,2.622-1.736,3.254-2.67&#10;&#9;&#9;&#9;&#9;c0.488-0.723,0.841-1.493,1.05-2.294c0.111-0.426,0.199-1.107,0.147-1.825C410.49,757.884,409.863,758.264,409.015,758.677z" style="fill:#4C4C4C;"/>
			<path d="M393.857,752.783c-0.041,0.06-0.652,0.925-1.135,2.253c-0.362,0.995-0.346,2.443-0.346,2.46v0.003&#10;&#9;&#9;&#9;&#9;c0,0.34,0.019,0.677,0.057,1.011c0,0.008,0,0.013,0.002,0.018c0.004,0.043,0.011,0.084,0.015,0.127&#10;&#9;&#9;&#9;&#9;c0.03,0.231,0.069,0.466,0.119,0.702c0.7,0.178,4.878,1.152,9.548,0.502c2.927-0.407,5.149-1.273,6.499-1.927&#10;&#9;&#9;&#9;&#9;c1.121-0.544,1.842-1.036,2.12-1.238c-0.277-1.028-1.042-2.641-1.743-3.646c-2.005-2.865-4.167-3.601-5.277-3.783&#10;&#9;&#9;&#9;&#9;c-0.424-0.069-0.763-0.109-1.243-0.109c-0.447,0-1.002,0.036-1.743,0.114c-0.743,0.077-1.572,0.272-2.532,0.596&#10;&#9;&#9;&#9;&#9;c-1.348,0.451-2.567,1.159-3.527,2.048l-0.033,0.03C394.495,752.073,394.199,752.349,393.857,752.783z M406.127,752.116&#10;&#9;&#9;&#9;&#9;c0.961,0,1.743,0.781,1.743,1.743c0,0.962-0.782,1.744-1.743,1.744c-0.962,0-1.742-0.782-1.742-1.744&#10;&#9;&#9;&#9;&#9;C404.385,752.898,405.165,752.116,406.127,752.116z M397.885,752.047c1.557,0,2.817,1.262,2.817,2.817&#10;&#9;&#9;&#9;&#9;c0,1.556-1.26,2.814-2.817,2.814c-1.555,0-2.816-1.259-2.816-2.814C395.069,753.309,396.33,752.047,397.885,752.047z" style="fill:#4C4C4C;"/>
		</g>
	</g>
	<g>
		<path d="M466.868,175.135c-17.861-17.861-41.609-27.698-66.868-27.698s-49.007,9.837-66.868,27.698&#10;&#9;&#9;&#9;c-17.861,17.861-27.697,41.609-27.697,66.868s9.837,49.007,27.697,66.868c17.861,17.861,41.609,27.698,66.868,27.698&#10;&#9;&#9;&#9;s49.007-9.836,66.868-27.698c17.861-17.861,27.697-41.609,27.697-66.868S484.729,192.997,466.868,175.135z"/>
		<path d="M346.597,314.605c4.602-7.967,10.96-14.821,18.493-20.015c9.144,11.339,21.76,17.802,34.917,17.802&#10;&#9;&#9;&#9;c13.242,0,25.863-6.444,34.928-17.748c7.517,5.19,13.863,12.026,18.461,19.966c-15.383,11.362-33.917,17.503-53.395,17.503&#10;&#9;&#9;&#9;C380.518,332.114,361.981,325.971,346.597,314.605z" style="fill:#5A9E89;"/>
		<path d="M350.057,232.742c0-7.191,1.562-14.303,4.533-20.792c0.476,0.612,0.977,1.203,1.51,1.764&#10;&#9;&#9;&#9;c0.122,0.129,0.396,0.402,0.738,0.728c-0.677,1.708-1.226,3.486-1.632,5.326c-0.265,1.201,0.494,2.39,1.695,2.656&#10;&#9;&#9;&#9;c0.162,0.036,0.323,0.053,0.482,0.053c1.022,0,1.944-0.708,2.173-1.748c2.811-12.732,13.421-22.136,26.401-23.401&#10;&#9;&#9;&#9;c1.225-0.12,2.12-1.209,2.001-2.433c-0.119-1.225-1.216-2.118-2.433-2.001c-1.415,0.138-2.805,0.361-4.165,0.662&#10;&#9;&#9;&#9;c-1.087-1.924-2.436-3.717-4.002-5.352c6.948-3.518,14.677-5.369,22.533-5.369c7.917,0,15.699,1.879,22.688,5.449&#10;&#9;&#9;&#9;c-1.554,1.639-2.875,3.418-3.93,5.274c-1.364-0.303-2.757-0.527-4.176-0.665c-1.221-0.117-2.314,0.776-2.433,2.001&#10;&#9;&#9;&#9;c-0.12,1.225,0.776,2.314,2.001,2.433c12.98,1.265,23.59,10.669,26.401,23.401c0.23,1.04,1.151,1.748,2.173,1.748&#10;&#9;&#9;&#9;c0.159,0,0.321-0.017,0.482-0.053c1.202-0.265,1.96-1.454,1.695-2.656c-0.406-1.84-0.955-3.62-1.633-5.328&#10;&#9;&#9;&#9;c0.333-0.313,0.607-0.587,0.74-0.727c0.515-0.544,1.002-1.113,1.464-1.704c2.953,6.468,4.505,13.564,4.505,20.732&#10;&#9;&#9;&#9;c0,1.486-0.072,2.972-0.202,4.446l-0.439-0.319c-2.724-1.975-5.776-3.622-9.074-4.896c-3.29-1.267-6.773-2.143-10.353-2.606&#10;&#9;&#9;&#9;c-12.764-1.65-23.369-9.083-27.017-18.938l-0.425-1.148c-0.323-0.874-1.157-1.454-2.089-1.454h0c-0.932,0-1.765,0.58-2.089,1.454&#10;&#9;&#9;&#9;l-0.426,1.149c-1.783,4.821-5.229,9.138-9.965,12.485c-4.805,3.399-10.702,5.63-17.053,6.452&#10;&#9;&#9;&#9;c-7.242,0.939-13.959,3.533-19.424,7.503l-1.012,0.736C350.146,235.99,350.057,234.364,350.057,232.742z" style="fill:#9E5523;"/>
		<path d="M376.951,194.852c-2.304,0.845-4.495,1.925-6.539,3.218c-2.732-6.271-6.529-11.192-9.657-14.555&#10;&#9;&#9;&#9;C367.711,185.444,373.577,189.503,376.951,194.852z" style="fill:#4F1D10;"/>
		<path d="M358.893,210.164c-4.79-5.444-7.614-15.298-4.09-26.285c3.095,2.859,8.582,8.72,11.913,16.892&#10;&#9;&#9;&#9;C363.587,203.393,360.931,206.567,358.893,210.164z" style="fill:#F9E3CF;"/>
		<path d="M433.285,200.772c3.32-8.141,8.814-14.017,11.913-16.886c3.522,10.981,0.699,20.834-4.091,26.279&#10;&#9;&#9;&#9;C439.069,206.568,436.413,203.393,433.285,200.772z" style="fill:#F9E3CF;"/>
		<path d="M429.588,198.07c-2.041-1.291-4.228-2.369-6.528-3.214c1.224-1.924,2.809-3.741,4.681-5.342&#10;&#9;&#9;&#9;c3.219-2.757,7.169-4.797,11.503-5.998C436.117,186.88,432.32,191.8,429.588,198.07z" style="fill:#4F1D10;"/>
		<path d="M429.709,286.373c1.571-1.477,3.077-3.078,4.509-4.8c4.979-5.986,8.759-13.06,11.188-20.782&#10;&#9;&#9;&#9;c0.734,0.042,1.464,0.012,2.183-0.082v38.869C442.425,294.224,436.374,289.739,429.709,286.373z" style="fill:#9E5523;"/>
		<path d="M399.852,294.245c-11.664,0-22.678-5.542-31.011-15.605c-8.432-10.183-13.139-23.779-13.253-38.285&#10;&#9;&#9;&#9;c-0.003-0.313-0.059-0.617-0.154-0.903c4.577-2.956,10.024-4.907,15.876-5.666c7.069-0.915,13.658-3.417,19.053-7.233&#10;&#9;&#9;&#9;c4.267-3.015,7.639-6.743,9.911-10.925c5.223,9.54,16.153,16.503,28.957,18.158c3.227,0.417,6.364,1.206,9.32,2.344&#10;&#9;&#9;&#9;c2.118,0.818,4.117,1.809,5.973,2.953c-0.256,0.458-0.406,0.982-0.412,1.535c-0.168,14.449-4.899,27.982-13.32,38.107&#10;&#9;&#9;&#9;C422.469,288.733,411.48,294.245,399.852,294.245z" style="fill:#F9E3CF;"/>
		<path d="M399.852,298.7c9.411,0,18.415-3.202,26.158-9.174c1.76,0.822,3.477,1.728,5.146,2.71&#10;&#9;&#9;&#9;c-8.19,10.009-19.421,15.701-31.149,15.701c-11.644,0-22.869-5.711-31.134-15.753c1.594-0.936,3.23-1.801,4.906-2.59&#10;&#9;&#9;&#9;C381.501,295.524,390.473,298.7,399.852,298.7z" style="fill:#F9E3CF;"/>
		<path d="M450.467,254.862c-1.127,0.858-2.447,1.36-3.826,1.469c1.092-4.547,1.733-9.281,1.893-14.114&#10;&#9;&#9;&#9;c3.146,1.147,5.202,4.392,4.738,7.825C453.011,251.97,452.015,253.682,450.467,254.862z" style="fill:#F9E3CF;"/>
		<path d="M351.174,242.33c0.165,4.784,0.801,9.467,1.881,13.97c-1.269-0.155-2.479-0.644-3.522-1.439&#10;&#9;&#9;&#9;c-1.548-1.18-2.544-2.892-2.805-4.82C346.279,246.714,348.193,243.567,351.174,242.33z" style="fill:#F9E3CF;"/>
		<path d="M354.301,260.804c2.416,7.675,6.169,14.712,11.109,20.677c1.48,1.787,3.039,3.443,4.668,4.967&#10;&#9;&#9;&#9;c-6.581,3.349-12.558,7.795-17.667,13.095v-38.838C353.034,260.787,353.665,260.823,354.301,260.804z" style="fill:#9E5523;"/>
		<path d="M463.718,305.721c-2.169,2.169-4.43,4.212-6.773,6.129c-1.476-2.495-3.116-4.885-4.9-7.157v-45.532&#10;&#9;&#9;&#9;c0.385-0.23,0.761-0.48,1.122-0.756c2.495-1.901,4.1-4.659,4.519-7.768c0.541-4.005-1.049-7.85-3.89-10.369&#10;&#9;&#9;&#9;c0.345-2.477,0.529-5.001,0.529-7.527c0-8.777-2.137-17.457-6.18-25.179c3.969-8.074,4.141-18.631,0.091-28.306&#10;&#9;&#9;&#9;c-0.365-0.874-1.246-1.418-2.189-1.363c-7.453,0.45-14.468,3.002-19.943,7.219c-7.994-4.407-17.021-6.732-26.214-6.732&#10;&#9;&#9;&#9;c-9.14,0-18.124,2.301-26.084,6.66c-5.382-4.093-12.356-6.694-19.857-7.147c-0.941-0.052-1.824,0.49-2.189,1.364&#10;&#9;&#9;&#9;c-4.035,9.647-3.874,20.168,0.058,28.229c-4.069,7.749-6.217,16.449-6.217,25.256c0,2.537,0.179,5.083,0.528,7.589&#10;&#9;&#9;&#9;c-2.797,2.52-4.354,6.333-3.817,10.307c0.42,3.108,2.025,5.867,4.519,7.768c0.361,0.275,0.738,0.519,1.122,0.748v45.511&#10;&#9;&#9;&#9;c-1.788,2.279-3.43,4.677-4.908,7.181c-2.34-1.915-4.599-3.956-6.765-6.123c-17.019-17.02-26.393-39.648-26.393-63.718&#10;&#9;&#9;&#9;c0-24.069,9.373-46.698,26.393-63.718c17.02-17.02,39.649-26.393,63.718-26.393c24.069,0,46.698,9.373,63.718,26.393&#10;&#9;&#9;&#9;c17.019,17.019,26.392,39.648,26.392,63.718C490.11,266.073,480.737,288.702,463.718,305.721z" style="fill:#9CE5D0;"/>
		<path d="M431.689,252.216c-0.433-1.151-1.719-1.732-2.87-1.299c-1.174,0.442-2.516,0.233-3.5-0.546&#10;&#9;&#9;&#9;c-2.532-2.006-5.998-2.293-8.807-0.782c-0.551,0.24-1.061,0.595-1.491,1.069c-1.628,1.794-1.493,4.569,0.302,6.196&#10;&#9;&#9;&#9;c1.794,1.628,4.569,1.493,6.197-0.301c0.685-0.755,1.053-1.683,1.122-2.626c1.423,1.096,3.166,1.671,4.925,1.671&#10;&#9;&#9;&#9;c0.954,0,1.912-0.168,2.824-0.512C431.542,254.652,432.123,253.367,431.689,252.216z"/>
		<path d="M383.706,249.55c-2.797-1.465-6.222-1.168-8.731,0.82c-0.984,0.779-2.326,0.989-3.5,0.546&#10;&#9;&#9;&#9;c-1.152-0.434-2.436,0.148-2.87,1.299c-0.434,1.151,0.148,2.436,1.299,2.87c0.913,0.344,1.871,0.512,2.825,0.512&#10;&#9;&#9;&#9;c1.765,0,3.515-0.579,4.941-1.683c0.066,0.947,0.436,1.88,1.123,2.637c1.628,1.794,4.402,1.929,6.197,0.301&#10;&#9;&#9;&#9;c1.794-1.628,1.93-4.402,0.302-6.196C384.837,250.157,384.292,249.79,383.706,249.55z"/>
		<path d="M404.196,275.681c-1.13,1.085-2.621,1.683-4.198,1.683c-1.574,0-3.064-0.598-4.194-1.683&#10;&#9;&#9;&#9;c-0.888-0.852-2.298-0.823-3.15,0.065c-0.852,0.887-0.823,2.298,0.064,3.149c1.964,1.886,4.549,2.924,7.279,2.924&#10;&#9;&#9;&#9;c2.732,0,5.319-1.038,7.283-2.924c0.888-0.852,0.916-2.262,0.065-3.149C406.494,274.858,405.084,274.829,404.196,275.681z"/>
	</g>
</g>
</svg>